<?xml version="1.0" standalone="no"?>
<!DOCTYPE svg PUBLIC "-//W3C//DTD SVG 20010904//EN"
 "http://www.w3.org/TR/2001/REC-SVG-20010904/DTD/svg10.dtd">
<svg version="1.0" xmlns="http://www.w3.org/2000/svg"
 width="1864.000000pt" height="1851.000000pt" viewBox="0 0 1864.000000 1851.000000"
 preserveAspectRatio="xMidYMid meet">
<metadata>
Created by potrace 1.16, written by Peter Selinger 2001-2019
</metadata>
<g transform="translate(0.000000,1851.000000) scale(0.100000,-0.100000)"
fill="#000000" stroke="none">
<path d="M11742 18351 c-17 -19 -42 -60 -53 -93 -12 -32 -25 -60 -29 -63 -3
-2 -20 4 -36 14 -28 17 -30 17 -50 -3 -13 -11 -36 -20 -55 -20 -39 -1 -48 -19
-17 -33 18 -8 19 -10 5 -16 -9 -3 -23 1 -33 10 -14 14 -21 15 -50 4 -19 -7
-54 -14 -78 -16 -53 -4 -180 -89 -182 -121 -2 -34 -4 -37 -19 -24 -8 7 -21 10
-29 7 -15 -6 -19 -56 -4 -74 10 -13 -8 -13 -29 0 -6 4 -18 4 -27 1 -9 -3 -23
-1 -31 6 -13 11 -20 9 -44 -14 -25 -24 -29 -25 -41 -11 -7 8 -16 15 -21 15
-14 0 -10 -22 7 -41 15 -16 14 -17 -5 -12 -12 3 -21 1 -21 -6 0 -8 -5 -9 -19
-1 -31 16 -39 12 -57 -22 -10 -18 -24 -38 -32 -44 -11 -8 -12 -15 -3 -32 9
-18 8 -23 -10 -32 -17 -10 -21 -8 -26 9 -3 11 -9 19 -13 16 -5 -3 -11 -1 -15
5 -10 17 -25 11 -25 -9 0 -11 -4 -22 -9 -25 -5 -3 -11 -15 -14 -26 -4 -15 -1
-20 11 -18 26 4 16 -43 -14 -65 -13 -10 -24 -29 -24 -41 0 -12 -5 -27 -11 -33
-14 -14 9 -103 29 -110 18 -8 15 -20 -8 -26 -16 -4 -20 0 -20 18 0 25 -17 35
-61 35 -22 0 -29 -5 -29 -20 0 -11 6 -29 12 -40 30 -47 -37 -43 -130 7 -39 22
-43 23 -48 6 -13 -39 -39 -83 -48 -80 -5 2 -10 15 -10 30 -1 15 -7 32 -14 39
-20 20 -33 -10 -26 -58 3 -24 2 -44 -4 -48 -11 -7 -42 19 -42 35 0 25 -20 5
-26 -26 -7 -40 -22 -54 -35 -34 -6 11 -11 11 -20 2 -9 -9 -6 -15 14 -24 15 -7
27 -16 27 -21 0 -16 -32 -58 -45 -58 -14 0 -29 45 -20 60 8 14 -9 12 -22 -1
-6 -6 -9 -18 -6 -25 3 -8 -2 -17 -11 -20 -9 -3 -16 -15 -16 -25 0 -24 -20 -60
-42 -76 -9 -7 -24 -36 -33 -63 -9 -28 -23 -50 -30 -50 -8 0 -16 -9 -20 -19 -3
-11 -15 -23 -27 -27 -20 -6 -20 -7 6 -30 14 -14 26 -36 26 -49 0 -21 -4 -23
-27 -18 -16 3 -34 6 -40 6 -7 0 -13 6 -13 12 0 6 -11 22 -25 35 -14 13 -25 33
-25 44 -1 20 -1 20 -11 3 -15 -26 7 -215 27 -235 10 -9 13 -24 9 -42 -8 -34
10 -48 25 -20 16 30 27 24 26 -12 0 -18 3 -43 7 -55 6 -18 5 -23 -7 -23 -9 0
-16 -8 -16 -20 0 -14 6 -19 22 -17 35 3 36 -31 1 -39 -34 -9 -72 -35 -73 -50
0 -6 -7 -18 -16 -25 -9 -7 -20 -23 -25 -36 -5 -13 -15 -23 -24 -23 -8 0 -15
-7 -15 -15 0 -8 -4 -15 -10 -15 -5 0 -10 -5 -10 -11 0 -5 5 -7 10 -4 6 4 10
-5 10 -19 0 -14 -5 -26 -12 -26 -9 0 -9 -3 0 -12 18 -18 15 -49 -3 -42 -10 4
-15 21 -16 53 0 41 -1 43 -11 21 -5 -14 -14 -33 -19 -43 -5 -9 -10 -40 -10
-67 -1 -29 -7 -55 -15 -61 -8 -6 -14 -21 -14 -34 0 -12 -14 -34 -31 -49 -29
-26 -29 -29 -15 -50 8 -13 12 -33 9 -44 -3 -14 2 -24 17 -32 17 -9 19 -14 9
-26 -6 -7 -9 -22 -6 -33 2 -10 -3 -25 -13 -33 -9 -9 -20 -34 -24 -57 -8 -52
-36 -58 -36 -7 0 18 -6 39 -14 45 -12 10 -15 5 -19 -31 -2 -24 -5 -60 -5 -80
0 -20 -8 -48 -18 -63 -12 -19 -14 -32 -7 -48 5 -12 8 -47 7 -77 -1 -30 -5
-152 -9 -270 -3 -118 -11 -243 -17 -278 -8 -47 -8 -66 1 -75 6 -6 11 -19 11
-29 0 -10 5 -27 12 -38 10 -15 10 -29 0 -65 -12 -46 -9 -70 9 -60 14 9 11 -42
-5 -73 -7 -15 -18 -48 -24 -73 -7 -26 -14 -54 -18 -63 -4 -12 0 -16 15 -16 32
0 35 -22 14 -89 -23 -71 -20 -121 8 -121 24 0 24 -5 -6 -65 -30 -60 -32 -115
-7 -138 10 -10 21 -15 24 -12 3 3 5 -13 4 -36 0 -28 5 -45 17 -54 9 -6 17 -24
17 -38 0 -14 11 -38 25 -53 14 -15 25 -31 25 -35 0 -5 8 -18 18 -29 9 -11 17
-24 18 -28 5 -48 37 -72 97 -72 22 0 31 -8 44 -36 17 -34 17 -36 -2 -50 -18
-14 -18 -14 3 -14 28 0 41 -29 19 -42 -21 -11 -21 -22 0 -43 13 -13 17 -35 16
-94 0 -105 -10 -228 -22 -280 -6 -29 -6 -51 0 -63 7 -13 6 -25 -6 -40 -10 -15
-15 -46 -15 -95 0 -39 -4 -74 -9 -77 -10 -7 -24 -64 -22 -88 1 -9 -7 -22 -18
-27 -20 -11 -20 -18 -6 -73 5 -19 3 -28 -5 -28 -9 0 -11 -15 -6 -57 15 -119 3
-348 -20 -391 -7 -15 -14 -36 -14 -47 0 -11 -4 -27 -10 -35 -5 -9 -5 -19 2
-27 6 -8 7 -24 3 -40 -5 -16 -9 -48 -11 -73 -2 -30 -10 -50 -23 -61 -11 -9
-22 -35 -26 -63 -7 -46 -9 -48 -36 -42 -27 5 -29 4 -29 -29 0 -36 13 -47 24
-19 5 12 14 15 37 10 21 -4 31 -1 35 9 4 8 15 15 26 15 17 0 19 -5 13 -30 -4
-20 -2 -39 8 -53 14 -22 33 -117 30 -147 -1 -8 -4 -26 -6 -40 -2 -14 2 -31 10
-38 7 -7 14 -23 14 -35 1 -12 2 -44 4 -70 1 -29 8 -53 16 -57 15 -10 29 -128
18 -157 -8 -23 0 -43 17 -43 20 0 34 -33 34 -82 0 -24 7 -54 16 -66 8 -12 12
-27 8 -33 -11 -18 18 -92 44 -113 23 -19 25 -36 7 -78 -5 -13 -3 -18 9 -18 9
0 16 -4 16 -10 0 -5 -4 -10 -10 -10 -23 0 4 -29 41 -43 39 -15 39 -16 39 -71
0 -50 4 -60 36 -96 20 -22 32 -40 28 -41 -5 -1 2 -4 15 -8 31 -8 73 -79 60
-102 -6 -12 2 -27 31 -57 l40 -41 -2 -85 c-1 -56 3 -90 11 -100 7 -8 14 -28
15 -45 1 -17 5 -33 9 -37 4 -4 4 -24 1 -46 -5 -30 -3 -38 9 -38 15 0 27 -20
27 -46 0 -22 -28 -17 -35 7 -5 16 -10 18 -21 8 -8 -6 -14 -21 -14 -32 0 -23
-17 -89 -35 -132 -17 -43 -31 -84 -45 -135 -7 -25 -16 -58 -21 -74 -16 -52
-11 -86 11 -86 34 0 22 -27 -14 -34 -40 -8 -45 -22 -42 -114 2 -35 -1 -65 -6
-68 -11 -7 -10 -52 2 -59 6 -3 10 -1 10 5 0 6 5 8 10 5 6 -4 10 6 10 22 0 61
20 93 34 56 4 -11 1 -22 -8 -29 -9 -6 -16 -25 -16 -42 0 -17 -4 -32 -9 -34
-12 -4 -15 -80 -5 -130 5 -27 3 -38 -5 -38 -7 0 -9 -5 -4 -12 4 -7 7 -22 6
-33 -1 -14 0 -15 3 -4 3 11 12 15 24 12 39 -10 31 -58 -10 -58 -24 0 -25 -3
-26 -65 -1 -36 -6 -66 -12 -68 -8 -2 -8 -10 0 -28 9 -19 8 -28 -5 -42 -10 -10
-17 -23 -17 -29 0 -15 34 -43 54 -43 24 0 46 -24 46 -50 0 -15 5 -20 14 -17
16 6 12 -16 -6 -40 -6 -8 -3 -15 11 -22 25 -14 42 -14 19 -1 -10 6 -14 18 -11
30 7 28 27 20 31 -13 4 -31 22 -37 22 -7 0 22 22 36 40 25 7 -4 6 -13 -2 -28
-19 -32 -17 -77 2 -74 8 1 21 11 29 21 14 19 15 19 22 -2 4 -11 6 -37 3 -58
-3 -25 1 -42 12 -55 9 -10 14 -25 11 -34 -5 -10 0 -15 14 -15 11 0 19 6 18 13
-1 6 1 20 5 29 5 10 1 27 -9 42 -9 14 -14 30 -10 36 10 16 -4 48 -23 53 -16 4
-16 5 1 6 10 1 17 9 17 21 0 10 5 31 12 45 9 19 9 28 0 37 -16 16 -15 41 1 36
11 -4 19 -37 33 -132 3 -22 10 -48 15 -57 5 -10 9 -36 9 -58 0 -24 10 -61 24
-88 13 -27 39 -79 56 -118 18 -38 40 -83 48 -100 17 -33 18 -35 56 -120 15
-33 34 -71 42 -85 8 -14 28 -54 45 -89 16 -35 40 -72 54 -83 14 -11 25 -27 25
-37 0 -10 9 -26 19 -35 11 -10 31 -54 46 -99 14 -45 36 -95 49 -112 23 -30 66
-115 66 -129 0 -4 9 -19 20 -33 11 -14 20 -34 20 -44 0 -10 8 -23 19 -28 11
-6 21 -26 25 -50 3 -22 17 -53 31 -69 14 -17 28 -44 31 -60 4 -17 15 -39 25
-48 11 -9 19 -22 19 -28 0 -10 36 -87 141 -299 22 -43 39 -86 39 -96 0 -23 29
-63 41 -56 5 4 9 17 9 30 0 15 10 31 26 42 15 10 36 28 49 41 12 12 27 22 33
22 14 0 62 47 62 60 0 6 6 10 14 10 7 0 20 7 27 16 11 14 10 18 -6 27 -26 15
-96 17 -87 3 15 -25 11 -50 -13 -72 -14 -13 -25 -29 -25 -36 -1 -9 -5 -7 -14
5 -7 9 -19 17 -27 17 -30 1 -63 38 -64 72 0 39 -16 49 -30 19 -11 -25 -21 -27
-29 -6 -3 8 -2 15 3 15 4 0 8 7 8 14 0 8 -5 14 -10 13 -11 -2 -41 47 -51 84
-6 18 -5 20 3 9 9 -12 11 -9 11 16 0 16 5 35 11 41 7 7 7 13 1 17 -5 3 -15 -8
-22 -24 -10 -24 -15 -28 -26 -19 -8 6 -14 24 -14 40 0 30 -15 47 -23 27 -3 -7
-6 -1 -6 14 -1 17 -8 29 -21 33 -11 3 -20 12 -20 19 0 19 -66 146 -73 140 -3
-3 -3 3 0 14 3 13 -3 28 -16 41 -32 32 -26 87 9 86 8 0 21 6 28 15 11 13 12
11 6 -10 -4 -14 -9 -31 -12 -38 -3 -10 5 -11 35 -6 35 5 41 3 46 -15 7 -27 57
-30 57 -3 0 20 -36 46 -52 36 -7 -5 -9 8 -3 42 7 47 20 68 37 58 4 -3 8 -14 8
-24 0 -23 18 -36 32 -22 6 6 16 8 23 5 10 -3 12 2 8 16 -3 12 -9 21 -14 21
-14 0 -11 58 4 63 8 3 15 -19 23 -72 6 -42 12 -61 13 -43 1 22 6 32 17 32 8 0
12 4 9 10 -3 5 -1 19 6 32 11 20 12 21 25 4 10 -14 10 -23 1 -40 -7 -11 -15
-23 -19 -26 -3 -3 2 -16 13 -29 18 -22 19 -22 19 -3 0 26 17 37 34 22 11 -8
15 -8 18 1 2 7 13 13 24 14 10 1 28 6 38 10 20 9 46 -15 46 -42 0 -9 8 -11 24
-7 17 4 28 -1 42 -18 26 -33 50 -47 41 -25 -7 19 1 21 22 8 7 -5 13 -25 13
-45 0 -20 3 -36 7 -36 20 1 35 23 35 54 1 45 30 59 52 27 19 -26 31 -27 39 -2
6 20 35 19 35 -1 0 -5 -4 -7 -9 -4 -12 8 -21 -30 -9 -42 15 -15 45 -3 53 21 4
12 8 25 10 30 1 4 3 14 4 22 0 8 6 15 12 15 10 0 6 -60 -7 -115 -4 -14 -3 -16
4 -7 5 7 25 15 45 19 35 5 36 5 42 -33 4 -22 8 -43 9 -48 4 -15 -63 -78 -75
-71 -6 4 -13 -2 -16 -14 -3 -12 -12 -22 -19 -22 -8 -1 -20 -2 -26 -3 -16 -1
-24 -36 -9 -36 6 0 11 5 11 10 0 6 6 10 14 10 7 0 25 9 39 20 14 11 32 20 40
20 7 0 22 9 33 21 13 14 29 20 54 18 19 -1 53 3 75 9 22 7 51 13 65 14 18 2
28 12 35 34 14 43 34 64 61 64 24 0 114 55 114 70 0 4 21 30 48 57 26 26 82
89 124 138 43 50 88 101 100 115 20 21 83 102 246 314 20 26 52 67 71 89 18
23 37 52 42 64 5 13 13 23 18 23 5 0 19 19 31 43 12 23 30 51 40 62 10 11 27
39 39 61 11 23 26 48 33 55 7 8 21 30 30 49 10 19 40 62 68 95 27 33 58 76 69
96 11 19 33 50 50 67 16 18 31 36 33 41 2 4 13 21 25 37 13 16 36 46 53 68 16
21 30 44 30 50 0 6 12 22 25 35 14 13 25 31 25 40 0 9 5 22 11 28 6 6 10 16 8
22 -2 6 -24 -16 -49 -50 -25 -33 -51 -66 -58 -72 -7 -7 -18 -18 -25 -25 -7 -7
-22 -23 -33 -36 -12 -12 -25 -32 -28 -44 -4 -11 -20 -25 -36 -31 -18 -6 -30
-17 -30 -28 -1 -20 -54 -83 -70 -83 -5 0 -10 -4 -10 -9 0 -5 -13 -11 -30 -14
-21 -5 -30 -12 -30 -27 0 -15 -7 -20 -25 -20 -16 0 -25 -6 -25 -16 0 -9 -5
-14 -12 -12 -15 5 -58 -35 -58 -55 0 -21 -18 -31 -22 -13 -2 13 -7 12 -27 -3
-17 -13 -24 -28 -24 -52 0 -19 -3 -38 -7 -44 -4 -5 -10 -21 -14 -35 -8 -31
-63 -93 -76 -85 -6 3 -10 2 -10 -4 0 -5 -8 -12 -17 -15 -10 -3 -5 -4 12 -2 27
4 28 3 11 -10 -10 -7 -23 -11 -27 -8 -5 3 -11 -6 -15 -19 -4 -18 -11 -23 -24
-20 -15 4 -16 10 -8 46 5 23 13 46 17 52 5 6 1 18 -9 28 -18 18 -18 18 -25 -4
-6 -17 -9 -19 -17 -8 -7 10 -8 6 -4 -13 8 -34 -2 -58 -20 -51 -8 3 -21 0 -29
-7 -8 -6 -19 -9 -24 -6 -6 4 -15 -2 -20 -13 -7 -12 -18 -17 -30 -14 -16 4 -19
0 -17 -21 2 -15 -1 -29 -5 -32 -5 -3 -9 -19 -9 -37 0 -29 -1 -30 -14 -11 -9
11 -10 20 -5 23 13 4 -20 41 -38 41 -7 0 -13 -6 -13 -14 0 -11 -10 -13 -40 -9
-31 4 -41 2 -46 -11 -4 -11 -10 -13 -18 -7 -20 16 -72 1 -88 -26 -13 -21 -17
-23 -29 -11 -19 19 -59 18 -59 -2 0 -8 -16 -26 -35 -39 -30 -20 -39 -22 -61
-12 -29 13 -37 14 -30 3 2 -4 -6 -8 -20 -7 -14 0 -28 6 -33 13 -4 7 -12 12
-17 11 -21 -4 -33 2 -39 20 -5 16 -30 32 -55 36 -3 0 -10 4 -17 8 -6 4 -18 4
-26 1 -8 -3 -18 -1 -22 5 -11 18 -22 12 -29 -14 -4 -15 -11 -22 -20 -19 -10 4
-16 -5 -21 -25 -8 -37 -35 -42 -35 -6 0 16 6 25 15 25 11 0 15 13 15 54 0 30
5 56 10 58 6 2 2 8 -9 15 -15 9 -23 9 -36 -1 -16 -11 -16 -14 -2 -28 16 -16
12 -62 -4 -52 -5 3 -9 -2 -9 -10 0 -10 -9 -16 -23 -16 -29 0 -50 38 -35 64 14
25 2 49 -22 43 -11 -3 -18 -1 -14 4 3 5 0 9 -5 9 -6 0 -11 -10 -11 -22 0 -27
-50 -74 -61 -57 -4 7 -16 9 -27 7 -14 -4 -19 -2 -16 6 3 7 0 24 -5 38 -9 23
-7 25 11 21 11 -3 15 -9 9 -12 -6 -4 -7 -12 0 -21 8 -13 13 -11 29 10 11 14
25 31 31 38 7 9 6 14 -5 18 -9 3 -16 17 -16 30 0 26 -10 30 -26 14 -15 -15
-52 -21 -59 -9 -4 5 -2 9 3 9 5 0 12 8 14 18 4 14 15 18 56 18 27 -1 49 1 47
4 -2 3 3 14 11 25 8 10 14 13 14 7 0 -7 6 -12 14 -12 7 0 16 -9 19 -20 4 -17
0 -20 -29 -20 -37 0 -40 -6 -21 -42 10 -20 16 -23 30 -14 12 8 22 8 35 -1 15
-9 19 -8 19 3 0 8 -4 14 -9 14 -4 0 -8 5 -8 11 0 6 9 9 20 6 11 -3 20 -1 20 5
0 5 4 7 9 4 5 -4 8 2 7 11 -2 10 -9 18 -17 18 -8 0 -13 -6 -11 -13 3 -17 -9
-15 -24 6 -18 24 -17 35 6 60 28 30 40 28 40 -8 0 -22 5 -30 18 -30 13 0 14 2
4 9 -10 6 -4 10 18 15 18 3 36 3 41 0 6 -3 16 -1 23 5 11 9 18 8 29 -4 18 -17
47 -20 47 -4 0 7 10 5 25 -5 29 -19 65 -21 65 -3 0 8 -11 24 -25 37 -30 28
-32 40 -5 33 33 -9 51 14 44 57 -7 43 9 61 34 37 13 -13 14 -23 5 -51 -8 -26
-8 -39 2 -52 8 -12 14 -14 19 -6 4 7 4 12 0 12 -4 0 2 8 14 18 16 14 18 22 10
30 -9 9 -9 12 0 12 6 0 9 8 6 18 -5 14 -4 14 4 3 9 -12 13 -12 26 -2 11 9 16
10 16 2 0 -6 5 -11 10 -11 19 0 10 28 -15 44 -14 9 -24 22 -22 28 1 8 -10 11
-33 9 -38 -3 -37 7 1 14 12 3 27 11 31 19 5 8 14 21 21 28 7 7 23 33 34 58 12
25 22 39 23 32 0 -7 4 -11 9 -7 6 3 13 -11 16 -32 3 -21 10 -46 16 -55 20 -38
11 -56 -32 -63 -34 -6 -40 -10 -37 -28 4 -31 69 -47 93 -24 9 9 13 21 10 27
-4 6 5 10 19 10 14 0 28 4 31 10 3 5 25 9 48 8 72 -2 84 1 90 22 4 16 14 20
49 20 36 1 85 20 77 32 -2 1 2 12 9 23 6 11 12 15 12 8 0 -6 8 -9 19 -6 11 3
21 -2 25 -12 5 -14 2 -16 -15 -12 -13 4 -29 -2 -42 -14 -18 -16 -18 -19 -4
-19 9 0 17 -4 17 -10 0 -24 27 -7 45 28 10 20 20 39 22 41 1 2 11 -7 21 -19
23 -28 37 -21 57 27 11 25 12 40 5 47 -15 15 -12 36 5 36 8 0 15 -7 15 -15 0
-9 12 -20 27 -26 35 -13 73 3 73 30 0 14 5 19 14 15 8 -3 16 2 19 13 4 15 5
15 6 -3 1 -29 26 -50 34 -30 4 9 14 12 26 9 16 -4 23 1 31 23 6 16 23 39 38
51 23 19 25 24 12 33 -23 15 2 11 30 -5 41 -24 55 -19 35 11 -10 15 -14 32 -9
42 7 16 9 25 12 47 1 5 9 -1 18 -13 9 -13 20 -19 27 -15 7 4 19 8 27 10 7 1
21 12 31 24 l16 22 6 -23 c3 -13 10 -19 17 -15 8 5 8 11 2 17 -6 6 -8 17 -4
26 4 11 1 14 -12 9 -10 -4 -19 -1 -22 8 -4 8 -16 15 -29 15 -21 0 -23 3 -18
43 7 56 14 61 58 46 33 -12 38 -12 50 4 7 9 10 29 7 44 -4 21 -2 25 12 20 9
-4 16 -2 16 3 0 6 -4 10 -10 10 -11 0 -2 59 12 77 12 16 36 6 43 -18 8 -23 57
-26 75 -4 10 11 9 18 -4 30 -21 21 -21 51 0 59 11 4 15 15 12 35 -4 29 1 31
34 17 22 -10 38 0 38 24 0 10 5 22 10 25 6 3 10 17 10 31 0 29 25 42 51 25 17
-10 19 -8 19 24 0 19 5 35 10 35 6 0 10 11 10 25 0 21 5 25 29 25 19 0 34 8
47 27 10 14 40 46 66 71 28 26 52 61 61 86 10 29 20 42 36 44 29 5 35 21 21
71 -10 36 -30 57 -30 31 0 -5 -11 -10 -24 -10 -25 0 -39 -20 -30 -44 6 -16
-19 -71 -38 -82 -8 -5 -9 -2 -5 9 4 10 2 28 -3 41 -7 18 -16 24 -37 24 -15 -1
-38 2 -50 6 -12 4 -24 2 -27 -3 -7 -11 40 -51 60 -51 8 0 14 -4 14 -9 0 -5 3
-18 7 -28 6 -17 5 -17 -15 1 -12 11 -22 14 -22 8 0 -7 -3 -11 -7 -10 -5 0 -18
-3 -31 -8 -23 -10 -23 -10 -3 -28 13 -12 30 -17 50 -14 23 3 28 2 20 -8 -7 -8
-6 -13 3 -17 7 -2 0 -8 -17 -12 -45 -10 -75 -27 -75 -42 0 -7 -11 -18 -25 -23
-20 -8 -25 -16 -25 -45 0 -37 -25 -59 -39 -36 -10 16 -2 61 11 61 5 0 6 5 3
10 -3 6 -2 10 4 10 7 0 7 8 1 26 -6 14 -8 30 -4 35 3 5 0 9 -5 9 -16 0 -13 46
2 59 8 6 16 8 19 6 3 -3 17 0 31 6 27 12 27 29 1 29 -8 0 -12 -4 -9 -10 3 -5
-2 -10 -12 -10 -10 0 -28 -7 -39 -15 -12 -8 -24 -11 -28 -8 -3 3 -6 -1 -6 -11
0 -11 -6 -16 -17 -14 -12 2 -17 11 -15 23 2 11 5 24 5 30 1 5 -8 10 -19 11
-30 2 -44 12 -44 33 0 22 60 36 72 18 4 -6 10 -8 14 -4 12 11 -15 35 -35 30
-9 -2 -23 3 -30 11 -10 11 -18 13 -31 6 -11 -6 -29 -6 -42 -2 -33 12 -40 10
-67 -15 -19 -18 -22 -25 -12 -37 7 -8 9 -25 5 -40 -5 -21 -12 -26 -36 -26 -27
0 -30 -3 -24 -22 3 -13 6 -33 6 -45 0 -14 6 -23 15 -23 20 0 19 -10 -2 -26
-27 -21 -33 -17 -33 21 0 40 -15 45 -48 15 -12 -11 -28 -20 -37 -20 -19 0 -19
-14 0 -30 12 -10 15 -9 16 6 0 11 3 14 6 6 2 -6 9 -9 15 -6 7 4 8 -9 5 -37 -3
-24 -6 -47 -6 -51 -1 -14 -31 -8 -31 5 0 8 -11 19 -25 25 -14 6 -25 16 -25 22
0 22 -26 8 -37 -19 -12 -34 -9 -41 22 -41 29 0 49 -22 34 -37 -14 -14 -3 -33
17 -33 14 0 13 -2 0 -16 -15 -15 -15 -29 1 -87 7 -27 23 -10 23 25 0 29 1 30
34 25 19 -3 37 -3 39 0 13 12 -7 33 -37 38 -20 4 -35 15 -43 32 -17 35 -7 46
25 30 15 -8 35 -12 46 -9 10 2 23 -2 28 -10 7 -10 11 -10 15 0 2 6 9 10 14 6
5 -3 9 0 9 5 0 6 7 11 15 11 17 0 20 -25 5 -35 -19 -12 -11 -45 10 -45 11 0
20 7 20 15 0 15 29 35 51 35 8 0 8 -4 1 -13 -6 -7 -9 -23 -5 -35 4 -15 1 -22
-9 -22 -8 0 -18 -11 -24 -24 -9 -24 -10 -24 -45 -10 -29 12 -36 20 -32 35 3
10 1 19 -5 19 -5 0 -13 -20 -16 -45 -6 -34 -3 -52 10 -75 10 -16 15 -32 12
-35 -7 -7 -58 16 -58 26 0 21 -46 38 -80 30 -48 -11 -63 -5 -49 20 12 23 3 59
-19 75 -9 6 -16 26 -16 44 -1 18 -7 35 -14 38 -9 3 -12 -3 -10 -15 1 -11 -6
-37 -17 -59 -11 -21 -21 -40 -21 -42 -3 -6 -53 10 -52 17 1 3 -2 13 -5 21 -3
8 -7 28 -9 45 -4 39 -38 49 -38 11 0 -14 5 -28 10 -31 6 -3 10 -15 10 -26 0
-18 -10 -23 -37 -20 -9 1 -13 -12 -13 -36 -1 -34 -2 -36 -14 -20 -7 9 -23 17
-35 17 -16 0 -21 6 -21 25 0 14 5 25 10 25 19 0 10 31 -12 39 -30 11 -34 8
-42 -30 -4 -22 -10 -30 -21 -26 -20 8 -29 -10 -10 -21 14 -7 14 -11 -4 -33
-21 -26 -29 -24 -36 10 -6 31 -27 49 -61 51 -43 3 -51 0 -31 -11 20 -12 23
-45 3 -52 -21 -8 -58 31 -51 54 5 15 2 19 -14 19 -12 0 -21 -4 -21 -10 0 -5
-11 -12 -25 -16 -29 -7 -24 -25 5 -19 24 5 37 -12 21 -28 -8 -8 -11 -8 -11 2
0 9 -5 8 -16 -4 -15 -14 -17 -14 -33 3 -9 10 -24 21 -33 25 -10 3 -18 11 -18
17 0 7 -6 8 -19 0 -11 -5 -29 -10 -40 -10 -12 0 -30 -9 -40 -19 -21 -21 -31
-18 -31 10 0 28 -20 33 -43 11 -30 -28 -73 -19 -85 17 -12 35 -5 50 20 43 15
-4 19 -1 16 9 -3 8 -12 12 -19 10 -8 -2 -26 -3 -42 -2 -16 1 -30 -5 -33 -14
-3 -8 -11 -12 -16 -9 -6 4 -7 -2 -3 -16 8 -26 -12 -45 -32 -28 -18 15 -16 38
3 38 11 0 14 6 9 20 -5 14 -3 18 8 14 7 -2 19 2 26 9 9 12 8 16 -4 21 -8 3
-15 12 -15 21 0 8 -5 15 -11 15 -6 0 -9 -6 -6 -14 9 -22 -13 -36 -34 -23 -27
17 -48 -6 -31 -33 18 -29 -4 -35 -51 -15 -14 6 -15 10 -7 15 8 5 1 10 -19 15
-27 6 -30 10 -25 31 5 21 3 24 -20 24 -18 0 -26 5 -26 18 -1 15 -2 15 -11 -2
-9 -14 -8 -21 2 -27 12 -8 12 -11 -1 -19 -12 -8 -17 -1 -27 32 -13 42 -60 101
-74 93 -4 -3 -10 3 -13 12 -3 10 -4 6 -2 -9 3 -22 -9 -38 -28 -38 -1 0 -1 13
2 28 2 17 -3 37 -15 51 -19 23 -20 23 -41 5 -12 -10 -22 -26 -22 -36 0 -20
-20 -35 -21 -16 -3 45 -7 62 -18 66 -6 2 -9 7 -7 11 11 17 -60 -3 -72 -20 -7
-11 -21 -19 -31 -19 -32 0 -9 77 24 79 19 0 24 64 8 99 -14 28 -14 35 -3 42 8
5 18 7 22 4 4 -3 20 2 35 10 16 8 22 15 16 16 -7 0 -13 8 -13 18 0 10 -5 23
-12 30 -8 8 -8 12 -1 12 14 0 24 38 12 46 -14 8 -11 31 6 48 9 9 11 17 5 21
-20 12 -11 44 14 51 27 7 49 -2 41 -16 -9 -14 66 -41 105 -38 34 3 35 2 32
-32 -2 -19 -8 -39 -13 -44 -5 -6 -9 -17 -9 -25 0 -13 2 -14 9 -2 5 8 16 11 24
8 11 -4 13 0 10 14 -4 15 -2 18 11 13 10 -4 16 -1 16 9 0 10 7 13 20 10 14 -4
22 -17 26 -44 4 -22 10 -39 15 -39 5 0 9 -11 9 -24 0 -27 15 -42 25 -26 4 6 1
17 -5 25 -7 8 -9 26 -6 40 4 14 2 25 -4 25 -5 0 -10 7 -10 15 0 24 19 17 26
-10 5 -20 11 -24 30 -19 20 5 24 3 24 -17 -1 -13 -7 -35 -14 -48 -23 -42 5
-71 34 -36 13 15 39 7 68 -22 17 -16 69 -17 74 -1 3 8 17 0 36 -20 32 -33 69
-35 57 -3 -12 31 -10 35 33 43 45 10 77 5 68 -11 -3 -5 2 -15 11 -22 13 -11
17 -11 20 -1 5 14 63 17 63 2 0 -5 9 -10 20 -10 11 0 20 -4 20 -10 0 -5 7 -10
15 -10 8 0 15 -4 15 -9 0 -18 32 -4 43 19 16 31 33 36 40 10 5 -20 27 -29 27
-10 0 6 7 10 15 10 22 0 75 41 75 57 0 21 -18 15 -36 -12 -20 -31 -59 -35 -49
-5 4 13 1 22 -9 26 -9 3 -16 12 -16 19 0 10 10 12 35 8 26 -4 36 -2 41 11 8
20 31 21 51 1 17 -18 49 -15 45 3 -3 17 15 15 22 -3 3 -8 12 -15 20 -15 12 0
13 5 7 23 -5 13 -5 30 -1 37 5 8 5 21 0 30 -6 11 -5 21 1 27 18 18 0 68 -30
86 -25 15 -30 15 -41 2 -17 -20 -32 -19 -73 5 -31 19 -35 19 -41 4 -6 -16 -7
-16 -117 0 -14 2 -44 1 -66 -3 -34 -7 -42 -5 -52 11 -15 24 -34 19 -41 -12 -7
-31 -23 -35 -35 -8 -11 23 -75 43 -165 50 -56 5 -70 13 -70 42 0 30 -9 37 -31
26 -12 -7 -20 -7 -24 0 -9 14 -45 13 -45 -2 0 -6 -7 -4 -18 5 -23 21 -32 21
-32 2 0 -8 -4 -15 -10 -15 -5 0 -7 7 -3 15 9 24 -27 44 -77 45 -26 0 -51 5
-57 11 -12 12 -37 3 -28 -11 6 -9 -21 -40 -34 -40 -5 0 -6 11 -4 24 7 35 -13
41 -39 11 -12 -14 -28 -25 -35 -25 -7 0 -16 -13 -19 -30 -5 -21 -12 -30 -26
-30 -15 0 -19 6 -16 28 3 23 -1 27 -26 30 -16 2 -33 -2 -37 -10 -8 -11 -10
-11 -18 0 -6 11 -10 9 -14 -7 -6 -22 11 -29 29 -11 17 17 42 1 46 -31 4 -25 1
-29 -19 -29 -13 0 -23 -5 -23 -11 0 -5 -11 3 -24 18 l-25 28 4 -44 c5 -52 14
-63 49 -63 17 0 26 -6 27 -17 0 -9 2 -24 4 -33 2 -10 0 -18 -4 -18 -4 0 -13
-10 -18 -23 -11 -23 -41 -33 -44 -15 -5 25 -2 33 11 34 8 1 21 2 28 3 6 0 12
8 12 16 0 11 -11 15 -40 15 -35 0 -40 -3 -40 -22 -1 -23 -1 -23 -16 -3 -8 11
-12 25 -9 33 2 7 -2 24 -11 37 -12 19 -22 23 -40 19 -21 -5 -24 -3 -24 19 0
14 7 28 16 31 17 7 10 44 -12 61 -7 5 -14 23 -16 39 -4 41 -28 46 -28 6 0 -22
4 -29 13 -24 6 4 4 -2 -5 -13 -10 -11 -18 -30 -18 -44 l0 -24 -19 25 c-11 13
-17 28 -15 32 2 4 -11 4 -31 1 -24 -4 -35 -2 -35 7 0 8 -9 11 -25 8 -15 -3
-25 -1 -25 7 0 19 12 26 27 13 11 -9 15 -7 20 11 4 17 8 19 19 10 11 -9 14 -8
14 4 0 8 6 17 13 20 6 2 9 7 5 11 -10 12 -58 14 -64 4 -3 -5 -17 0 -30 12 -20
20 -21 24 -8 37 18 19 18 33 -1 33 -8 0 -15 -4 -15 -9 0 -17 -34 -22 -46 -7
-13 18 -31 21 -36 5 -4 -12 -38 -1 -38 13 0 5 5 6 10 3 6 -3 19 -3 31 0 14 5
18 12 13 23 -3 10 -6 31 -5 49 2 37 -22 55 -60 47 -18 -4 -20 -3 -10 4 11 8
10 11 -5 15 -10 2 7 5 39 6 37 1 64 6 74 16 8 8 19 13 24 10 12 -8 12 -45 -1
-45 -5 0 -10 5 -10 12 0 23 -15 -4 -15 -28 -1 -34 24 -30 36 6 6 17 15 30 21
30 6 0 7 8 3 18 -20 50 -12 63 24 40 15 -9 17 -18 11 -44 -6 -25 -4 -37 8 -46
9 -8 13 -8 9 -2 -4 7 0 14 7 17 9 4 17 -1 19 -11 4 -16 5 -15 6 1 0 9 7 17 15
17 9 0 16 12 18 28 2 19 9 28 26 30 20 3 22 0 17 -21 -5 -19 -2 -27 12 -31 17
-6 47 -47 65 -89 13 -31 24 -11 22 40 -1 35 -6 49 -18 51 -9 2 -16 7 -16 12 0
13 33 21 40 9 5 -7 19 -5 46 9 47 24 80 31 83 17 1 -5 -8 -12 -20 -13 -36 -6
-50 -24 -32 -44 11 -12 11 -18 2 -24 -8 -5 -10 -3 -4 6 5 8 4 11 -3 6 -6 -3
-17 1 -26 9 -9 9 -17 11 -21 5 -9 -15 5 -32 21 -26 8 3 14 0 14 -6 0 -7 14 -8
40 -4 36 6 40 4 40 -16 0 -21 0 -21 14 -2 13 17 12 20 -4 26 -32 12 -31 26 2
33 18 4 41 16 51 26 10 11 23 16 29 13 7 -5 5 -12 -7 -20 -11 -8 -15 -20 -11
-30 6 -15 8 -15 31 0 32 21 45 20 45 -3 0 -10 6 -21 14 -24 19 -8 32 43 14 55
-10 8 -10 11 0 15 6 2 12 17 12 32 0 21 7 29 31 38 39 15 59 7 59 -24 0 -21 4
-24 23 -19 12 3 25 6 30 6 4 0 7 6 7 14 0 19 24 27 61 19 20 -4 28 -10 25 -19
-3 -8 1 -14 9 -14 9 0 12 6 9 15 -7 16 21 22 30 6 5 -8 35 -15 101 -24 11 -2
35 -10 52 -17 26 -12 33 -21 35 -49 2 -19 9 -36 16 -39 7 -2 10 2 7 10 -3 7 1
22 9 33 13 18 18 18 49 7 19 -7 54 -12 78 -11 24 0 55 -3 69 -6 14 -4 34 -6
45 -5 40 2 71 3 112 2 33 -2 41 -5 37 -17 -8 -20 13 -19 33 1 9 8 19 11 22 6
8 -11 70 -42 87 -42 7 0 14 5 16 12 5 15 99 19 116 5 11 -8 11 -12 0 -18 -8
-6 2 -9 28 -9 22 0 49 -7 60 -15 10 -8 27 -15 37 -15 21 0 23 -27 2 -32 -9 -2
-12 -8 -6 -17 7 -10 13 -11 29 -2 27 14 72 -5 72 -30 0 -25 21 -28 42 -7 29
29 51 24 43 -11 -6 -26 -4 -29 14 -24 24 6 25 8 10 35 -9 17 -8 19 8 16 14 -3
17 -11 15 -42 -2 -23 2 -44 11 -54 8 -9 17 -24 20 -32 3 -8 6 -3 6 13 1 15 7
27 14 27 15 0 49 -53 45 -72 -2 -7 8 -14 22 -16 22 -2 23 -1 8 8 -10 6 -18 15
-18 20 0 14 38 12 42 -2 2 -6 13 -13 23 -14 33 -5 65 -27 65 -45 0 -13 18 -29
35 -29 1 0 5 14 9 31 3 17 14 43 24 57 21 29 19 52 -4 52 -9 0 -14 -11 -14
-30 0 -20 -5 -30 -15 -30 -21 0 -33 30 -24 65 3 17 7 22 8 13 0 -9 6 -20 12
-24 8 -4 9 0 4 15 -3 11 -2 21 3 21 7 0 32 42 32 54 0 5 -34 0 -51 -8 -9 -4
-16 -20 -17 -38 -1 -39 -9 -46 -27 -22 -23 31 8 97 35 71 9 -9 11 -7 9 13 -2
14 0 30 4 36 4 7 -3 14 -18 16 -25 5 -29 0 -26 -34 3 -28 -18 -31 -25 -3 -3
14 -14 31 -24 38 -22 15 -25 28 -9 37 6 4 13 23 14 41 3 29 1 31 -10 16 -14
-20 -57 -22 -85 -5 -15 10 -22 10 -31 1 -8 -8 -16 -9 -29 -1 -13 9 -22 6 -39
-11 -26 -26 -37 -26 -86 -1 -22 11 -50 20 -62 20 -13 0 -23 4 -23 9 0 5 -13
14 -30 20 -16 5 -30 15 -30 20 0 6 -4 11 -10 11 -5 0 -7 -7 -4 -15 5 -11 -1
-15 -20 -15 -16 0 -26 6 -26 15 0 8 -9 20 -20 27 -11 7 -20 23 -20 35 0 29
-30 31 -37 3 -4 -15 -14 -20 -38 -20 -18 0 -36 -6 -39 -12 -3 -9 -8 -8 -16 5
-6 9 -22 17 -36 17 -16 0 -28 8 -36 25 -13 29 -17 30 -44 11 -23 -18 -44 -4
-37 24 5 18 2 19 -28 14 -19 -4 -39 -11 -45 -15 -6 -5 -14 -6 -17 -2 -4 3 -13
1 -20 -5 -8 -7 -16 -10 -19 -7 -11 12 -33 -29 -37 -67 -2 -14 -38 -8 -51 7
-10 12 -9 15 5 15 11 0 15 5 11 16 -5 12 -1 14 17 9 22 -7 22 -7 -2 10 -19 14
-25 15 -31 4 -7 -10 -14 -6 -32 16 -26 33 -30 51 -10 47 7 -1 15 4 18 12 4 11
15 13 35 9 20 -4 29 -2 29 7 0 8 3 10 6 7 4 -3 16 -2 26 4 28 15 8 32 -26 23
-14 -3 -26 -10 -26 -15 0 -20 -30 -7 -50 21 -12 17 -28 30 -35 30 -8 0 -24 10
-37 23 -13 12 -36 28 -51 35 -29 12 -77 17 -77 6 0 -16 23 -44 36 -44 11 0 12
-4 4 -19 -13 -25 -13 -34 0 -26 6 3 10 1 10 -4 0 -6 -7 -11 -15 -11 -18 0 -21
-60 -4 -77 6 -6 8 -16 4 -23 -9 -15 -35 6 -35 30 0 10 -5 20 -11 22 -9 3 -9 9
-1 25 9 16 9 22 -1 26 -9 3 -9 9 1 26 10 18 10 26 1 37 -16 19 -43 18 -35 -1
16 -40 19 -49 11 -43 -5 5 -15 -1 -23 -13 -11 -16 -17 -18 -26 -9 -8 9 -8 14
2 17 14 5 16 61 3 82 -7 11 -15 11 -45 1 -39 -13 -40 -30 -1 -30 31 0 41 -18
21 -38 -9 -9 -16 -11 -16 -5 0 15 -30 25 -44 15 -22 -18 -56 -21 -56 -6 0 8 7
17 15 20 33 13 11 23 -50 22 -49 -1 -71 -6 -87 -20 -12 -10 -24 -15 -27 -11
-11 14 -46 8 -49 -8 -2 -11 7 -18 27 -22 22 -5 29 -12 28 -26 -1 -19 -2 -19
-25 0 -13 10 -28 16 -33 13 -19 -11 -90 17 -101 41 -11 23 -44 40 -53 25 -5
-8 -103 -5 -111 3 -3 3 10 15 28 28 18 13 36 28 40 34 4 5 8 6 8 1 0 -6 9 0
20 12 11 12 32 25 47 28 21 6 30 2 45 -19 17 -23 22 -25 33 -13 8 7 13 26 12
42 -2 34 27 46 36 14 3 -11 1 -20 -4 -20 -5 0 -9 -5 -9 -12 0 -6 10 -2 23 10
12 11 44 30 72 42 27 12 53 27 57 33 5 8 8 6 8 -5 0 -11 5 -15 15 -12 8 4 22
1 30 -6 8 -7 27 -10 42 -7 16 3 52 -1 82 -10 47 -13 55 -13 68 0 13 13 11 17
-13 36 -23 18 -24 21 -7 21 11 0 28 -9 38 -20 10 -12 25 -18 32 -16 7 3 12 0
10 -7 -1 -7 9 -12 22 -12 18 0 27 8 34 30 13 38 43 65 74 65 19 0 23 5 23 30
0 22 4 28 15 24 19 -8 19 -23 -1 -45 -8 -9 -14 -28 -12 -41 l5 -23 11 25 11
25 0 -25 c1 -51 4 -57 23 -52 15 4 18 15 18 68 0 38 4 64 11 64 5 0 7 5 3 12
-14 23 -12 68 3 68 10 0 13 -6 9 -16 -4 -9 -1 -23 5 -30 13 -16 3 -164 -12
-164 -10 0 -12 -50 -3 -74 7 -19 40 -5 48 22 3 9 15 23 26 30 17 10 26 10 49
-3 26 -13 33 -13 65 0 31 13 35 18 27 34 -6 10 -17 23 -25 30 -12 10 -17 9
-26 -8 -15 -28 -38 -26 -46 3 -8 35 4 49 36 42 18 -3 33 0 41 10 10 13 14 12
30 -2 11 -10 19 -31 19 -49 0 -17 6 -40 14 -51 8 -10 13 -29 10 -40 -7 -29 22
-40 36 -14 8 14 6 21 -5 28 -21 11 -10 36 22 48 17 6 29 21 37 44 8 25 17 35
31 35 26 0 23 -43 -5 -62 -11 -8 -20 -21 -20 -29 0 -8 -4 -14 -9 -14 -5 0 -11
-16 -13 -35 -2 -19 0 -35 4 -35 4 0 8 8 9 18 0 14 2 13 11 -5 10 -20 12 -21
55 -8 25 8 51 11 59 8 19 -7 29 24 14 42 -18 22 -39 18 -62 -10 -11 -14 -26
-25 -34 -25 -16 0 -19 16 -3 25 5 4 15 19 20 33 7 18 13 23 18 14 12 -19 53 1
73 35 16 28 16 30 -2 41 -31 19 -40 14 -40 -18 0 -16 -4 -30 -10 -30 -5 0 -10
9 -10 21 0 11 -4 17 -10 14 -17 -11 -11 7 8 21 14 11 14 13 2 14 -19 1 -64 39
-79 67 -6 12 -11 34 -11 48 0 14 -5 35 -10 45 -10 19 -11 19 -31 -1 -11 -11
-18 -23 -15 -27 3 -3 6 -2 6 3 0 4 7 2 15 -5 19 -16 19 -30 -1 -30 -8 0 -12 5
-9 10 3 6 -3 10 -15 10 -14 0 -19 4 -14 12 5 8 2 9 -9 5 -21 -8 -21 5 -1 44
18 37 8 84 -15 69 -12 -7 -12 -11 -2 -23 10 -13 8 -16 -8 -22 -21 -6 -30 -35
-11 -35 6 0 10 -10 10 -22 0 -19 -2 -20 -10 -8 -8 12 -10 12 -10 1 0 -8 -3
-12 -6 -8 -4 3 -13 0 -21 -8 -21 -22 -33 -18 -33 9 0 21 23 42 43 38 8 -2 9
11 1 32 -8 22 -32 8 -50 -30 -9 -19 -19 -32 -23 -30 -3 2 -15 -2 -26 -10 -10
-8 -14 -14 -8 -14 6 0 16 -14 22 -31 13 -37 14 -49 4 -48 -27 4 -43 -3 -43
-20 0 -26 -10 -51 -21 -51 -13 0 -11 48 1 52 6 2 12 17 13 33 1 23 -3 32 -21
40 -16 7 -21 16 -18 30 4 17 0 21 -21 23 -35 3 -47 15 -63 62 -15 46 -33 65
-55 56 -16 -6 -19 3 -10 26 4 10 16 13 35 10 24 -3 30 -9 30 -28 0 -30 25 -41
48 -21 26 22 83 32 93 16 6 -10 9 -6 9 14 0 20 5 27 19 27 11 0 23 5 26 10 4
6 3 10 -2 9 -21 -4 -33 2 -33 16 0 8 -4 15 -10 15 -5 0 -7 -7 -4 -15 4 -9 0
-15 -10 -16 -25 -2 -30 -4 -43 -12 -19 -12 -32 0 -39 38 -6 35 -24 49 -24 19
0 -8 -4 -12 -10 -9 -5 3 -10 17 -10 30 0 15 -7 26 -19 30 -11 3 -23 15 -26 26
-4 10 -12 19 -18 19 -7 0 -37 25 -67 55 -30 30 -60 55 -67 55 -6 0 -25 11 -42
25 -16 14 -54 33 -83 41 -29 9 -57 19 -63 24 -5 4 -46 4 -90 1 -72 -5 -81 -8
-92 -31 -7 -14 -13 -37 -13 -52 0 -33 -16 -45 -25 -18 -5 16 -10 18 -25 10
-14 -8 -25 -4 -48 18 -16 15 -41 33 -54 39 -21 9 -25 8 -26 -5 -2 -32 8 -62
21 -62 7 0 23 -14 36 -30 12 -17 26 -28 30 -25 5 2 11 -4 14 -15 3 -11 11 -20
19 -20 7 0 18 -10 23 -22 6 -13 24 -27 43 -33 17 -5 32 -13 32 -18 0 -4 5 -5
10 -2 6 3 10 2 10 -4 0 -6 6 -8 14 -5 10 4 16 -2 18 -18 5 -37 31 -27 56 22
l22 45 -32 9 c-18 5 -27 11 -20 13 17 6 15 23 -3 23 -8 0 -15 6 -15 13 0 7 -3
8 -8 2 -4 -5 -14 -9 -22 -9 -8 1 -23 2 -33 3 -10 0 -16 5 -12 10 3 5 1 12 -5
16 -16 10 -12 35 8 42 9 4 20 11 24 17 4 6 16 6 35 -3 19 -9 29 -9 31 -2 5 16
52 13 58 -4 4 -8 14 -15 25 -15 20 0 83 -56 92 -82 4 -10 13 -19 22 -19 8 -1
21 -2 28 -3 6 -1 23 2 36 6 17 6 29 4 42 -7 9 -9 24 -18 33 -19 9 -1 27 -17
41 -35 23 -32 23 -35 8 -64 -13 -26 -17 -29 -27 -16 -7 11 -19 13 -36 9 -14
-4 -34 -5 -45 -3 -25 5 -43 6 -77 4 -20 -1 -28 -6 -28 -20 0 -15 5 -18 23 -14
12 3 27 9 32 14 6 4 11 -3 11 -17 2 -22 -1 -24 -30 -19 -27 6 -34 3 -45 -18
-7 -14 -10 -30 -7 -36 4 -6 -8 -13 -29 -17 -20 -3 -42 -15 -48 -25 -23 -36
-36 -22 -30 30 3 30 1 51 -5 55 -15 9 -42 -56 -36 -86 3 -16 2 -18 -3 -6 -7
14 -11 15 -26 3 -10 -7 -14 -15 -8 -16 6 -3 4 -14 -4 -29 l-14 -25 -1 33 c0
29 -3 33 -22 30 -28 -4 -33 -44 -5 -42 11 1 17 -5 17 -19 0 -11 -3 -17 -6 -14
-4 4 -20 -1 -35 -10 -16 -9 -31 -14 -35 -11 -3 4 -7 28 -8 55 -3 47 -6 50 -36
33 -10 -6 -11 -11 -3 -22 6 -7 13 -35 14 -61 3 -39 -1 -51 -15 -59 -24 -13
-30 -4 -29 42 2 49 -12 60 -26 20 -5 -17 -14 -30 -20 -30 -14 0 -37 -52 -33
-77 2 -13 8 -23 13 -23 6 0 7 -4 4 -10 -10 -16 -22 -12 -40 16 -17 26 -14 80
4 69 10 -5 25 25 16 33 -3 3 -5 0 -5 -6 0 -7 -13 -12 -30 -12 -20 0 -30 -5
-30 -15 0 -8 -9 -19 -20 -25 -14 -8 -20 -8 -20 0 0 6 -6 8 -12 5 -7 -4 -2 3
11 14 21 19 21 22 6 27 -25 10 -70 -9 -69 -29 2 -16 -47 -37 -85 -37 -8 0 -22
-6 -30 -13 -27 -23 -98 -2 -116 34 -13 24 -22 29 -50 29 -19 0 -37 -1 -38 -2
-2 -2 -11 3 -20 10 -13 11 -17 10 -25 -5 -10 -20 -5 -41 15 -61 13 -14 18 -32
7 -32 -3 0 -15 5 -26 11 -18 10 -25 8 -40 -10 -9 -13 -22 -20 -28 -16 -16 10
-12 65 5 71 10 4 12 10 7 18 -5 6 -10 27 -10 46 0 35 0 35 15 13 15 -22 41
-34 28 -13 -3 6 -1 10 6 10 7 0 1 9 -12 21 -14 12 -33 19 -45 16 -17 -3 -22 1
-22 17 -2 67 -4 72 -41 88 -33 15 -38 15 -53 1 -16 -14 -16 -17 -3 -27 11 -8
13 -19 6 -41 -7 -26 -12 -30 -39 -29 -29 2 -32 -1 -32 -27 0 -16 -5 -29 -11
-29 -6 0 -8 -7 -5 -16 4 -11 2 -15 -8 -11 -8 3 -16 -2 -19 -14 -8 -29 -23 -23
-21 9 1 16 7 27 15 26 11 -1 13 9 11 38 -4 37 -22 65 -22 34 0 -9 -8 -16 -17
-16 -15 0 -14 -2 3 -16 12 -10 14 -14 4 -11 -16 4 -40 -15 -40 -31 0 -22 -29
-19 -46 4 -23 29 -60 32 -69 4 -3 -11 -11 -20 -16 -20 -6 0 -8 4 -5 9 4 5 0
12 -6 14 -8 4 -7 6 4 6 22 1 34 21 18 31 -8 5 -23 -4 -41 -24 -23 -25 -28 -28
-29 -12 0 14 -5 17 -22 12 -13 -4 -33 -8 -46 -10 -30 -4 -38 -14 -24 -28 8 -8
15 -8 27 2 12 10 18 10 32 -1 17 -14 20 -14 40 3 17 14 33 1 33 -28 0 -18 5
-25 18 -23 9 1 26 1 37 0 18 -1 19 -2 2 -12 -9 -5 -21 -8 -26 -4 -5 3 -16 -4
-24 -15 -14 -21 -15 -21 -45 5 -23 19 -36 24 -48 17 -9 -5 -31 -5 -55 2 -33 9
-41 8 -52 -8 -10 -13 -14 -14 -14 -5 0 8 -3 24 -7 37 -8 23 3 29 20 12 14 -14
46 -1 42 17 -2 8 -21 21 -43 29 -36 12 -42 12 -66 -5 l-26 -19 1 51 c1 45 -2
53 -21 62 -17 7 -23 18 -23 43 0 19 -6 35 -15 38 -9 4 -17 27 -21 64 -5 45
-11 59 -25 63 -10 3 -20 0 -23 -7 -2 -6 -5 -3 -5 7 -1 9 6 17 14 17 8 0 15 9
15 20 0 14 -7 20 -21 20 -18 0 -20 -2 -8 -16 11 -14 9 -15 -17 -12 -23 2 -29
8 -28 26 0 12 -3 22 -8 22 -4 0 -8 -5 -8 -11 0 -5 -5 -7 -10 -4 -6 4 -8 21 -4
40 3 18 1 35 -4 39 -5 3 -12 -8 -16 -24 -3 -18 -12 -30 -22 -30 -13 0 -15 10
-12 60 2 45 0 60 -10 60 -8 0 -13 10 -12 23 3 35 0 71 -5 65 -3 -2 -7 -24 -10
-48 -6 -49 -11 -60 -28 -60 -9 0 -11 24 -10 82 2 67 -1 85 -14 95 -13 10 -14
15 -3 27 9 12 9 23 2 45 -6 16 -8 32 -5 35 3 3 2 13 -2 23 -4 10 -7 28 -6 41
2 13 -3 22 -12 22 -12 0 -12 10 -1 68 19 94 18 107 -9 119 -20 9 -23 18 -22
55 1 25 -4 50 -12 59 -16 19 -7 49 14 49 8 0 12 4 8 10 -11 18 -75 -22 -75
-47 0 -17 -15 -17 -29 1 -15 18 -4 46 18 46 22 0 22 41 0 66 -25 28 -31 70
-14 84 11 9 12 17 4 32 -6 11 -10 50 -10 86 0 46 -3 62 -9 52 -7 -11 -10 -7
-10 17 0 17 5 33 12 35 12 4 14 44 5 91 -3 16 -1 53 4 84 7 39 7 58 -1 68 -8
10 -7 25 4 59 9 25 16 62 16 83 0 87 17 210 33 240 12 22 16 48 13 85 -1 29 0
64 4 78 4 14 15 69 25 123 9 53 21 97 25 97 9 0 21 26 25 55 2 11 4 25 5 30 5
23 -1 34 -16 28 -15 -6 -15 -4 0 18 8 14 15 38 15 54 -1 94 8 335 13 341 4 3
4 12 1 20 -3 8 0 21 7 29 7 8 9 26 5 44 -5 23 -2 32 15 44 11 8 20 18 19 23
-4 22 3 29 27 31 29 1 47 21 36 38 -4 6 3 -1 16 -15 18 -20 24 -22 31 -11 5 8
8 19 6 25 -2 6 -6 33 -9 59 -5 42 -3 48 11 45 10 -2 18 -15 20 -33 3 -16 7
-32 9 -35 9 -8 34 32 34 53 0 13 5 17 15 13 8 -3 28 6 45 20 16 14 30 23 30
20 0 -4 11 1 25 10 14 9 25 25 25 35 0 12 7 19 20 19 18 0 25 10 21 33 -2 16
18 6 24 -13 6 -17 8 -18 21 -6 8 8 14 21 14 28 0 10 3 9 10 -2 8 -12 10 -10
10 10 0 18 3 21 9 11 7 -10 12 -8 25 10 20 29 20 34 0 54 -22 21 -16 25 41 27
49 3 71 22 44 39 -12 8 -11 12 5 24 13 10 15 15 6 15 -10 0 -10 3 3 13 9 6 17
19 19 27 4 20 29 39 51 40 12 0 17 8 17 33 1 27 2 29 11 14 6 -9 15 -14 21
-11 6 4 14 0 19 -7 6 -10 9 -6 9 13 0 34 17 46 23 16 4 -22 4 -22 6 -2 0 13
10 24 21 27 25 6 25 23 0 81 l-19 46 32 -5 c17 -4 34 -11 38 -16 3 -6 19 -9
35 -7 l29 4 -27 14 c-29 14 -34 29 -19 58 5 9 14 29 20 44 13 34 59 49 73 24
14 -24 28 -19 28 10 0 16 4 23 12 18 7 -4 8 -3 4 4 -4 7 -14 12 -22 12 -8 0
-14 10 -14 25 0 14 -8 29 -20 35 -41 22 -15 120 32 120 21 0 21 0 -1 -24 -34
-36 -21 -63 29 -64 37 -1 54 12 29 20 -16 5 15 69 42 86 16 10 24 11 35 1 12
-10 17 -8 28 7 10 14 11 21 3 26 -8 5 -5 13 7 27 15 16 22 18 32 10 11 -9 18
-4 31 20 10 17 21 31 25 31 9 0 21 -40 15 -47 -3 -2 -1 -18 5 -35 6 -16 14
-26 18 -21 12 13 22 125 11 119 -5 -4 -12 -2 -15 3 -4 5 -2 12 3 15 5 3 25
-14 45 -37 34 -41 40 -44 81 -42 25 0 45 -3 45 -7 0 -4 5 -8 10 -8 6 0 10 6
10 14 0 7 8 20 17 27 15 12 16 12 10 -3 -3 -10 -2 -20 3 -23 6 -4 10 1 10 9 0
9 5 16 11 16 5 0 7 5 4 10 -4 6 -21 8 -38 5 -37 -6 -73 16 -64 40 4 8 16 15
27 15 12 0 19 -3 16 -8 -2 -4 7 -12 20 -19 21 -10 24 -9 24 8 0 10 -5 19 -11
19 -5 0 -7 5 -4 10 4 6 10 8 15 5 5 -3 12 0 15 5 5 8 13 6 25 -5 25 -22 85
-31 96 -14 5 8 9 21 9 29 0 8 8 14 18 14 9 -1 17 2 17 7 0 5 11 8 25 7 27 -2
35 -18 10 -18 -8 0 -15 -4 -15 -10 0 -5 6 -7 13 -5 6 3 28 7 47 9 19 2 39 4
43 5 5 0 5 11 2 22 -5 15 -4 19 4 15 6 -4 11 -15 11 -26 0 -10 7 -21 16 -24
22 -9 23 -8 17 15 -4 16 -8 17 -14 7 -7 -10 -9 -9 -9 5 0 9 4 17 8 17 4 0 8
12 8 28 -1 16 4 26 12 24 6 -1 12 2 12 8 0 17 25 11 38 -10 9 -15 10 -26 2
-39 -8 -17 -6 -20 18 -25 15 -3 41 -2 57 3 17 5 24 10 18 11 -7 2 -17 4 -23 5
-5 1 -14 3 -20 4 -5 0 -10 8 -10 17 0 12 7 14 30 9 20 -4 35 -2 44 8 22 22 4
41 -33 34 -18 -4 -31 -2 -31 3 0 6 18 10 40 10 23 0 40 -5 40 -11 0 -6 6 -9
14 -6 21 8 27 -3 11 -20 -17 -16 -20 -37 -5 -28 9 6 14 -8 11 -27 -2 -14 20
-8 25 7 4 8 11 12 17 8 20 -12 87 -21 87 -11 0 6 9 0 20 -13 17 -21 19 -22 20
-6 0 10 5 15 10 12 6 -4 8 -11 5 -16 -8 -12 12 -12 36 1 14 8 18 17 13 34 -8
33 13 42 27 12 7 -14 16 -23 20 -20 5 3 6 -2 3 -10 -4 -11 6 -16 43 -21 26 -4
60 -16 76 -26 24 -18 28 -18 33 -4 4 9 13 14 20 11 7 -3 16 0 20 6 5 7 11 5
19 -6 15 -19 56 -14 76 10 14 17 46 18 52 2 4 -10 7 -10 14 -1 5 6 35 12 68
13 88 3 113 9 118 28 4 15 5 15 6 0 2 -28 18 -21 30 12 10 31 25 37 51 20 13
-9 13 -11 0 -20 -8 -5 -21 -10 -29 -10 -10 0 -11 -3 -2 -14 8 -10 23 -13 47
-9 27 4 34 2 34 -11 0 -9 -6 -16 -14 -16 -15 0 -29 -37 -16 -45 4 -3 19 1 32
8 33 17 138 10 138 -9 0 -8 -7 -14 -16 -14 -20 0 -14 -34 6 -36 29 -3 60 -16
60 -26 0 -5 4 -7 9 -3 6 3 14 -1 18 -10 5 -9 26 -16 55 -17 25 -2 44 -6 41
-10 -2 -5 1 -8 6 -8 6 0 11 6 11 12 0 7 10 -2 23 -19 12 -18 26 -33 30 -33 5
0 15 -7 23 -15 17 -16 59 -21 49 -6 -10 18 -23 101 -14 101 11 0 39 -30 40
-43 2 -37 6 -58 12 -63 11 -11 27 7 27 32 0 13 4 24 10 24 14 0 30 -35 30 -69
0 -23 4 -29 15 -25 8 4 15 17 15 30 0 22 4 24 43 24 24 0 47 3 51 7 12 13 46
10 46 -4 0 -8 5 -11 10 -8 6 3 10 2 10 -4 0 -5 -4 -12 -10 -16 -14 -9 0 -34
16 -28 9 3 14 -2 14 -16 0 -12 -4 -21 -10 -21 -5 0 -10 -7 -10 -15 0 -9 10
-15 26 -15 14 0 23 4 19 10 -3 6 -1 10 4 10 6 0 11 7 11 16 0 8 4 13 9 10 5
-4 7 2 5 11 -6 25 11 48 27 37 8 -5 19 -9 24 -9 18 -2 45 -17 45 -26 0 -5 -11
-9 -25 -9 -16 0 -25 -6 -25 -15 0 -26 74 -20 93 8 13 17 18 19 25 8 13 -19 3
-49 -19 -56 -15 -5 -16 -9 -6 -19 6 -8 18 -11 25 -8 8 3 17 0 21 -6 10 -16 61
-23 62 -9 0 7 5 1 10 -12 7 -17 15 -22 30 -18 27 7 48 -35 29 -58 -10 -12 -10
-15 4 -15 10 0 24 -7 32 -15 18 -17 34 -20 34 -4 0 5 5 7 11 3 7 -4 30 -9 52
-11 42 -3 68 -18 66 -37 -3 -26 2 -36 19 -36 9 -1 27 -9 40 -20 17 -14 21 -24
14 -37 -14 -28 -5 -135 12 -145 10 -6 13 -19 9 -48 l-6 -41 28 11 c26 10 27 9
21 -15 -4 -16 -2 -25 5 -25 6 0 9 -8 6 -19 -4 -16 1 -18 27 -17 27 1 31 -2 28
-21 -2 -13 1 -31 7 -40 6 -10 11 -12 11 -5 0 6 5 12 10 12 6 0 10 -15 10 -34
0 -19 5 -36 12 -38 8 -3 9 -11 3 -24 -8 -18 -9 -18 -12 4 -3 12 -11 22 -19 22
-16 0 -19 -16 -4 -25 17 -11 11 -35 -9 -35 -13 0 -18 -7 -18 -25 0 -26 12 -34
20 -12 3 7 6 5 6 -5 1 -22 21 -24 21 -3 0 8 7 15 15 15 24 0 38 -40 32 -96 -4
-40 -2 -54 9 -58 11 -4 14 5 15 37 1 23 1 48 0 55 -3 17 26 15 33 -3 7 -19 -3
-45 -17 -45 -6 0 -2 -6 8 -14 18 -13 18 -13 -1 -24 -10 -6 -13 -12 -6 -12 9 0
9 -8 -2 -35 -9 -21 -11 -35 -5 -35 6 0 9 -17 7 -42 -2 -27 1 -43 10 -45 6 -3
12 2 12 11 0 28 25 12 30 -19 4 -26 9 -30 33 -27 31 4 34 -4 11 -29 -14 -16
-14 -21 5 -64 11 -25 23 -71 26 -102 3 -33 12 -64 21 -73 14 -14 15 -12 12 20
-2 29 0 35 17 35 18 0 20 -7 21 -58 2 -52 0 -57 -17 -52 -29 9 -24 -20 7 -40
14 -9 32 -14 40 -11 8 3 14 -1 14 -10 0 -8 -4 -13 -8 -10 -4 2 -14 -5 -21 -17
-8 -12 -10 -19 -6 -15 12 11 35 -11 35 -34 0 -15 -5 -18 -20 -13 -14 4 -20 2
-20 -9 0 -8 9 -20 20 -26 13 -7 20 -21 20 -41 0 -36 25 -49 44 -24 10 14 15
15 21 5 4 -7 3 -15 -2 -19 -15 -10 -31 -82 -32 -139 0 -29 -6 -62 -12 -74 -6
-11 -8 -33 -5 -49 3 -15 1 -31 -4 -34 -6 -3 -10 -15 -10 -25 0 -10 -5 -20 -11
-22 -12 -4 -39 -115 -32 -134 2 -6 10 -11 18 -11 12 0 15 14 15 59 0 32 4 58
10 58 6 0 10 7 10 16 0 16 23 44 37 44 4 0 9 14 10 30 1 17 -2 30 -8 30 -6 0
-6 6 0 18 5 9 11 41 14 70 5 50 17 85 17 49 0 -20 29 -49 41 -42 5 4 9 31 9
61 0 36 5 61 15 70 26 26 30 65 9 81 -20 15 -29 88 -13 113 8 11 9 8 4 -13 -4
-22 -1 -29 20 -39 33 -15 42 -5 21 27 -15 23 -15 28 -1 55 20 38 55 41 55 5 0
-14 4 -25 9 -25 10 0 19 37 30 125 4 33 9 54 9 47 1 -7 7 -10 12 -7 6 3 10 -2
11 -12 0 -10 8 -1 18 22 13 30 16 47 9 67 -7 20 -6 33 5 48 l14 21 6 -22 c5
-19 8 -20 21 -9 9 7 16 19 16 26 0 17 37 19 43 2 2 -7 2 0 0 15 -3 16 -11 40
-19 55 -17 32 -19 112 -3 112 11 0 8 40 -6 90 -6 21 -5 23 6 13 23 -22 31 -14
29 30 -3 63 -1 81 8 73 7 -8 8 -13 11 -75 2 -65 10 -25 17 89 4 63 8 131 8
150 1 19 4 40 9 47 4 6 7 26 6 45 0 18 1 73 3 121 2 49 0 91 -4 94 -5 2 -8 15
-8 29 0 23 -9 28 -37 25 -7 -1 -17 8 -23 19 -6 11 -17 20 -26 20 -8 0 -14 6
-13 13 3 27 -2 35 -20 30 -27 -7 -129 49 -183 101 -37 35 -48 53 -48 76 0 23
5 30 19 30 26 0 33 23 15 49 -9 12 -16 32 -17 44 -2 25 -24 51 -44 53 -27 2
-31 4 -37 20 -3 8 -2 12 4 9 14 -8 13 8 -1 22 -6 6 -18 9 -25 6 -8 -3 -14 0
-14 6 0 7 -9 9 -24 5 -18 -4 -29 2 -50 27 -32 38 -21 52 28 37 68 -22 76 -22
76 1 0 21 -18 30 -75 34 -19 2 -30 8 -30 17 0 9 7 14 18 12 12 -2 17 4 17 23
0 14 -4 24 -9 21 -4 -3 -23 15 -40 39 -22 30 -40 45 -55 45 -32 0 -58 22 -50
43 3 9 10 14 15 11 5 -3 10 7 11 23 2 47 3 50 18 68 12 15 12 18 -3 26 -9 6
-17 17 -17 25 0 8 4 13 9 10 4 -3 22 5 40 18 38 28 22 40 -33 25 -29 -8 -36
-15 -36 -36 0 -21 -2 -24 -15 -13 -12 10 -15 10 -15 -1 -1 -28 -30 25 -30 54
0 28 -2 29 -41 25 -32 -2 -44 1 -53 15 -8 13 -8 20 3 26 9 6 12 21 9 44 -2 20
-1 34 2 32 11 -7 70 28 70 41 0 17 1 17 -39 3 -17 -6 -31 -16 -31 -22 0 -8 -4
-7 -9 2 -13 20 -111 25 -111 6 0 -10 -10 -15 -30 -15 -16 0 -39 -9 -49 -19
-19 -19 -139 -40 -159 -27 -5 3 -23 -1 -39 -9 -19 -10 -42 -13 -63 -9 l-33 7
54 20 c30 11 62 29 72 40 9 11 17 15 17 8 0 -9 5 -9 20 -1 11 6 18 15 15 20
-7 11 -22 12 -127 10 -46 0 -79 3 -83 10 -4 7 -19 9 -37 5 -21 -5 -35 -2 -49
11 -15 14 -24 15 -42 6 -12 -6 -54 -14 -92 -17 -62 -6 -73 -4 -94 14 l-24 21
29 2 c16 0 40 2 54 3 14 0 34 6 45 12 15 9 28 7 58 -4 44 -18 58 -9 55 37 -3
35 10 54 26 41 7 -6 15 -8 18 -6 3 3 38 7 79 10 41 2 89 10 106 17 40 15 61 2
44 -30 -9 -17 -6 -21 20 -32 55 -23 134 -11 145 22 4 14 13 18 32 16 22 -2 28
2 30 20 3 20 -7 27 -32 23 -5 -1 -17 6 -28 16 -15 13 -40 18 -116 19 -118 3
-151 7 -178 22 -14 7 -24 8 -31 1 -6 -6 -14 -4 -24 7 -12 14 -10 19 15 39 29
23 116 48 176 50 19 0 53 10 75 22 37 19 42 20 65 4 14 -8 28 -20 32 -26 5 -7
14 -6 28 3 11 6 26 12 33 12 21 0 49 36 45 57 -2 11 -19 23 -42 31 -22 7 -46
22 -53 32 -19 26 -33 25 -34 -2 -1 -21 -2 -21 -6 -3 -3 11 -11 24 -19 28 -9 5
-14 26 -14 55 0 30 -3 42 -9 33 -5 -7 -6 -22 -4 -32 3 -10 0 -19 -6 -19 -6 0
-11 -7 -11 -15 0 -15 -35 -21 -42 -7 -5 12 -87 62 -102 62 -7 0 -19 14 -26 30
-7 17 -16 30 -20 30 -8 0 -40 -34 -40 -43 0 -9 -72 -110 -85 -119 -5 -4 -18
-8 -29 -8 -16 0 -18 6 -13 41 3 23 10 45 15 48 5 3 12 16 16 28 6 17 2 22 -16
25 -28 4 -35 30 -13 51 19 20 19 37 0 37 -8 0 -15 -4 -15 -9 0 -14 -56 -33
-107 -37 -27 -2 -75 -6 -108 -9 -138 -12 -130 -14 -127 22 3 25 0 31 -13 29
-23 -3 -35 -27 -28 -55 4 -17 2 -22 -8 -19 -8 3 -13 13 -13 22 1 9 -8 19 -22
22 -13 3 -24 11 -24 18 0 6 -10 16 -22 21 -19 8 -23 18 -23 52 0 23 -4 45 -8
49 -4 4 -7 0 -7 -10 0 -9 -4 -15 -10 -11 -5 3 -7 12 -3 20 3 8 0 15 -6 15 -29
0 -147 -35 -159 -47 -7 -7 -20 -13 -28 -13 -8 0 -14 -5 -14 -12 0 -9 -3 -9
-11 -1 -8 8 -5 19 11 41 22 30 20 52 -4 52 -8 0 -19 -7 -26 -14 -8 -11 -18
-12 -35 -6 -14 5 -27 6 -30 0 -3 -5 -18 -7 -33 -5 -15 1 -32 -2 -39 -7 -7 -6
-22 -4 -42 6 -34 18 -61 21 -61 6 0 -5 -5 -10 -12 -10 -6 0 -4 8 7 20 12 13
15 27 11 45 -4 17 -3 24 4 20 5 -3 10 -1 10 4 0 6 8 11 18 10 10 0 12 -3 5 -6
-7 -2 -13 -13 -13 -22 0 -14 9 -18 45 -17 43 0 45 2 51 33 3 18 10 33 16 33 5
0 6 -5 3 -11 -10 -15 25 -38 57 -39 19 0 42 14 78 49 27 27 50 55 50 63 0 33
-60 63 -75 38 -3 -5 -18 -10 -33 -10 -15 0 -36 -7 -46 -15 -11 -8 -27 -15 -35
-15 -13 0 -14 2 -2 9 8 5 11 16 8 24 -4 11 -17 14 -57 10 -28 -3 -65 0 -82 6
-26 9 -33 8 -44 -7 -13 -16 -15 -16 -28 1 -11 15 -19 16 -34 8 -13 -7 -22 -7
-31 2 -10 9 -18 6 -36 -17 -21 -26 -27 -28 -69 -24 -29 4 -47 1 -49 -6 -3 -8
-8 -8 -17 1 -17 15 17 62 45 62 19 0 19 0 1 -10 -15 -9 -16 -13 -5 -20 10 -6
29 8 65 48 38 41 56 54 69 49 11 -4 15 -13 12 -26 -7 -28 10 -35 33 -15 21 19
44 18 153 -11 66 -17 68 -17 95 3 15 11 33 32 40 46 15 31 27 34 49 12 13 -14
18 -14 32 -3 38 32 71 43 91 30 17 -10 20 -9 26 13 8 34 31 31 39 -5 4 -16 11
-32 16 -35 21 -13 7 -25 -28 -25 -82 0 -103 -5 -103 -22 0 -9 12 -23 28 -31
15 -7 26 -20 24 -28 -2 -7 -5 -23 -6 -34 -4 -34 -24 -72 -40 -78 -9 -4 -16
-18 -16 -32 0 -31 28 -45 42 -22 5 10 17 17 26 17 10 0 29 8 42 17 18 13 46
18 102 19 43 0 78 -1 78 -3 0 -15 -23 -42 -31 -37 -12 7 -69 -44 -69 -62 0
-19 16 -25 43 -19 14 4 24 13 23 22 0 9 5 18 12 20 7 3 12 -4 12 -17 0 -20 4
-22 30 -16 17 3 46 17 64 31 25 19 35 22 44 13 15 -15 15 -43 1 -70 -16 -29
-2 -35 25 -9 20 19 28 21 44 12 26 -14 65 -14 78 -1 21 21 98 27 216 17 38 -3
70 -2 73 3 3 5 21 17 40 26 51 24 62 69 17 70 -85 2 -94 4 -88 20 5 12 2 15
-11 9 -56 -23 -139 -32 -128 -14 4 5 4 22 0 36 -5 22 -10 25 -36 19 -37 -7
-91 14 -111 43 -14 20 -26 23 -88 21 -29 -1 -30 -1 -92 6 -28 4 -48 11 -48 18
0 8 -11 11 -29 8 -26 -4 -30 -9 -33 -41 -2 -29 -7 -37 -27 -39 -21 -3 -23 -1
-17 25 4 15 16 37 27 49 10 11 19 25 19 31 0 19 89 45 156 45 26 0 39 7 54 28
11 15 20 31 20 35 0 4 9 20 21 36 25 36 56 38 69 4 5 -14 13 -25 17 -24 24 4
34 -4 14 -10 -14 -4 -27 -13 -29 -21 -4 -12 -2 -13 9 -3 12 10 17 8 27 -8 7
-11 16 -18 21 -15 4 3 20 -2 35 -10 33 -16 36 -17 55 -5 12 8 12 12 -3 26 -14
14 -22 16 -41 7 -19 -9 -25 -8 -29 4 -11 28 -6 50 17 82 27 36 37 33 37 -14 0
-20 5 -32 13 -30 23 3 37 17 37 38 0 16 5 19 25 16 20 -4 25 -1 25 14 0 52
-36 72 -78 42 -30 -21 -55 -11 -97 41 -33 40 -54 49 -71 32 -4 -4 -2 -7 4 -7
7 0 12 -4 12 -9 0 -13 -74 -5 -78 8 -2 6 -9 11 -16 11 -7 0 -21 9 -31 20 -22
24 -35 26 -35 5 0 -8 4 -15 9 -15 18 0 43 -32 31 -40 -18 -11 -93 6 -106 25
-8 11 -18 14 -26 9 -19 -12 -118 -14 -118 -2 0 5 6 16 14 24 16 16 101 19 111
4 4 -6 16 -6 33 1 15 5 33 12 41 14 23 9 -9 37 -38 34 -14 -2 -36 2 -48 9 -12
7 -42 12 -67 12 -25 0 -46 2 -46 5 0 13 45 65 55 65 17 0 45 34 45 53 0 22 -8
21 -45 -3 -32 -21 -107 -36 -124 -25 -13 7 13 65 29 65 12 0 70 60 70 71 0 15
-30 10 -37 -6 -5 -13 -119 -75 -139 -75 -3 0 -23 -13 -43 -28 -58 -46 -63 -47
-49 -15 6 15 20 37 30 49 38 43 8 72 -43 42 -16 -10 -23 -10 -26 -1 -2 7 -17
10 -36 7 -36 -5 -70 16 -62 37 3 8 24 22 45 32 42 20 54 47 21 47 -11 0 -22
-4 -25 -9 -3 -5 -20 -11 -38 -14 -18 -3 -50 -8 -71 -11 -33 -6 -40 -4 -44 14
-3 12 -13 20 -22 18 -9 -1 -26 2 -39 6 -12 4 -34 9 -50 11 -27 3 -29 6 -17 36
3 9 -1 23 -9 32 -9 9 -16 24 -17 34 0 15 -2 14 -9 -4 -9 -23 -39 -32 -41 -13
-1 6 -2 15 -3 21 -1 13 -45 59 -57 59 -5 0 -6 -13 -2 -30 4 -22 2 -30 -9 -30
-8 0 -18 3 -22 7 -7 7 -61 14 -101 13 -63 -2 -79 1 -87 12 -5 9 -8 6 -8 -9 0
-31 -45 -33 -53 -3 -3 11 -11 20 -18 20 -7 0 -9 -3 -6 -6 10 -10 -12 -44 -28
-44 -8 0 -15 4 -15 9 0 4 -12 7 -27 4 -26 -3 -27 -3 -5 6 24 11 30 31 10 31
-18 0 -106 -30 -146 -49 -22 -10 -28 -17 -18 -19 9 -2 16 -8 16 -14 0 -6 -13
-8 -32 -4 -37 7 -43 7 -78 4 -17 -2 -25 3 -28 15 -3 13 7 22 35 33 26 10 46
28 61 55 12 21 29 39 37 39 12 0 12 6 -3 35 -17 34 -18 34 -67 28 -27 -3 -59
-14 -70 -24 -11 -9 -38 -19 -60 -21 -27 -2 -40 -8 -40 -18 0 -8 8 -15 17 -15
10 0 18 -3 18 -7 1 -85 0 -90 -16 -78 -9 8 -14 25 -12 43 4 36 -26 62 -42 37
-5 -8 -7 -23 -4 -32 4 -13 -1 -17 -26 -16 -32 1 -33 2 -21 33 10 24 -4 45 -29
45 -13 0 -17 -8 -16 -32 1 -29 -2 -33 -21 -31 -28 3 -31 -21 -5 -36 16 -9 16
-11 -3 -24 -24 -18 -103 -30 -142 -22 -27 6 -27 6 -8 -9 19 -16 19 -16 -3 -32
-12 -8 -22 -23 -22 -32 0 -13 -8 -18 -27 -17 -22 0 -27 -4 -25 -18 3 -14 -2
-18 -20 -15 -15 2 -22 9 -21 22 1 16 -4 18 -39 13 -39 -5 -88 8 -88 23 0 10
37 20 74 20 19 0 27 4 23 13 -3 7 11 20 34 31 48 24 52 52 8 61 l-31 7 52 24
c29 13 55 22 60 19 4 -3 7 9 6 25 0 22 -6 30 -18 30 -26 0 -22 17 10 45 l27
23 -27 7 c-17 4 -28 14 -28 24 0 9 3 12 8 6 14 -20 33 -15 43 12 19 50 7 61
-29 24z m-821 -7651 c20 0 8 -47 -16 -60 -14 -7 -25 -19 -25 -26 0 -8 -15 -17
-32 -22 -35 -9 -45 -28 -27 -52 8 -11 12 -12 16 -2 6 14 39 16 48 2 3 -5 -5
-12 -19 -16 -19 -4 -24 -12 -23 -32 2 -19 8 -27 21 -27 11 0 27 -14 38 -33 17
-30 17 -33 1 -39 -9 -4 -19 -1 -21 5 -2 7 -11 20 -20 29 -10 9 -17 21 -17 27
0 6 -16 13 -35 16 -26 4 -35 10 -36 25 -1 29 -15 58 -36 73 -23 17 -23 32 -1
32 13 0 14 3 5 12 -7 7 -12 17 -12 23 0 5 5 3 10 -5 6 -10 10 -11 10 -2 0 19
17 14 23 -8 3 -11 13 -20 24 -20 20 1 73 43 73 60 0 5 5 10 10 10 16 0 11 17
-7 24 -11 5 -25 -2 -40 -19 -13 -14 -30 -25 -38 -25 -18 0 -18 5 -5 30 13 24
3 50 -20 50 -12 0 -20 -9 -22 -22 -4 -29 -38 -38 -38 -10 0 21 -33 56 -43 45
-4 -3 -7 1 -7 10 0 10 8 17 20 17 11 0 20 -4 20 -10 0 -15 60 -12 61 3 0 10 2
10 6 0 2 -7 13 -13 24 -13 12 0 19 -7 19 -20 0 -11 7 -20 16 -20 8 0 12 5 9
10 -3 6 2 10 12 10 21 1 54 24 52 36 -1 5 0 14 2 19 1 6 4 -11 6 -37 2 -27 8
-48 14 -48z"/>
<path d="M14228 17462 c-19 -31 -25 -77 -9 -68 7 5 92 -10 196 -34 31 -7 96 2
109 16 28 27 20 43 -18 37 -25 -4 -38 0 -52 15 -27 29 -68 37 -94 19 -18 -12
-26 -12 -65 0 -24 8 -45 22 -47 30 -2 9 -9 4 -20 -15z"/>
<path d="M14439 17304 c-13 -7 -37 -13 -53 -14 -28 0 -76 -39 -76 -61 0 -15
20 -10 26 6 10 24 33 17 69 -21 19 -19 46 -39 62 -43 32 -8 73 -63 73 -97 0
-13 5 -24 11 -24 6 0 8 7 5 16 -10 27 5 37 21 14 10 -14 22 -20 35 -16 12 2
27 -2 35 -10 8 -8 10 -14 4 -14 -26 0 -7 -20 35 -37 42 -17 45 -20 39 -48 -4
-26 -1 -33 25 -48 29 -18 29 -18 36 7 6 27 31 40 57 30 23 -8 27 -29 14 -64
-8 -22 -9 -35 -1 -48 15 -23 54 -29 54 -8 0 9 -6 16 -14 16 -13 0 -26 20 -26
41 0 16 26 10 50 -11 26 -22 49 -27 32 -7 -6 7 -10 32 -9 55 3 43 -11 60 -32
39 -6 -6 -11 -18 -11 -27 0 -9 -8 -3 -20 15 -29 43 -27 67 5 59 25 -6 31 4 26
43 -1 6 8 18 20 26 19 14 20 15 2 21 -10 3 -27 4 -38 1 -11 -2 -23 -4 -27 -4
-4 -1 -5 -8 -2 -16 4 -8 2 -15 -4 -15 -17 0 -31 26 -26 47 4 16 -5 32 -36 62
-23 23 -46 41 -51 41 -5 0 -14 11 -19 25 -7 18 -17 25 -35 25 -21 0 -26 4 -23
23 3 19 -1 22 -29 19 -18 -1 -33 2 -33 8 0 15 -37 12 -69 -4 -23 -12 -32 -13
-53 -2 -21 11 -29 11 -49 0z"/>
<path d="M15066 16255 c-28 -21 -10 -36 35 -29 22 4 39 3 38 -2 -4 -23 2 -36
15 -31 10 4 15 -7 19 -42 6 -49 35 -121 49 -121 4 0 8 5 8 11 0 8 5 8 15 -1 8
-7 15 -21 15 -31 0 -10 4 -20 9 -23 5 -3 12 -23 16 -43 4 -21 10 -32 12 -25 3
6 9 10 13 7 5 -3 7 -11 5 -18 -13 -37 -13 -67 1 -67 8 0 14 6 15 13 0 6 2 19
4 27 3 8 6 22 8 30 2 8 7 23 11 32 12 26 -2 41 -20 23 -25 -25 -34 -17 -34 30
0 25 -5 63 -12 84 -11 36 -15 39 -43 35 -32 -5 -70 13 -47 23 6 2 12 20 12 39
0 20 -4 33 -10 29 -5 -3 -17 6 -26 20 -9 14 -25 25 -35 25 -11 0 -19 5 -19 10
0 14 -32 12 -54 -5z"/>
<path d="M11037 14258 c-7 -27 -30 -37 -41 -19 -3 5 -22 7 -42 6 -26 -3 -45
-14 -68 -39 -26 -27 -39 -34 -62 -31 -17 2 -37 -4 -47 -13 -18 -16 -20 -15
-34 3 -14 20 -14 20 -29 1 -8 -11 -14 -27 -14 -35 0 -12 -5 -10 -18 7 l-19 24
-30 -31 c-19 -18 -42 -31 -57 -31 -15 0 -27 -7 -31 -17 -3 -10 -23 -29 -46
-43 -49 -30 -61 -66 -31 -89 14 -11 21 -26 20 -48 -1 -29 -3 -31 -21 -21 -19
10 -19 11 -2 20 14 8 15 12 4 19 -23 14 -35 10 -47 -15 -11 -25 -6 -62 11 -83
6 -9 6 -13 -1 -13 -5 0 -12 -9 -15 -20 -4 -17 0 -20 33 -20 50 0 70 8 70 29 0
9 9 24 20 34 11 9 20 12 20 7 0 -6 5 -10 10 -10 6 0 9 3 9 8 -5 31 22 50 41
27 8 -10 6 -18 -10 -33 -17 -16 -18 -21 -6 -31 7 -6 30 -9 50 -7 20 2 36 0 36
-5 0 -5 4 -9 9 -9 6 0 7 15 4 34 -5 31 -3 34 14 30 13 -4 22 0 26 9 4 12 14
13 41 7 19 -4 37 -5 40 -2 4 3 6 -2 6 -10 0 -17 77 -32 105 -22 8 4 21 1 29
-5 11 -9 15 -7 20 11 6 22 7 21 26 -12 10 -19 19 -31 20 -26 0 11 40 -33 40
-45 0 -4 9 -5 20 -2 14 4 22 -2 30 -21 11 -29 25 -34 34 -11 4 12 10 10 32
-10 14 -13 31 -23 37 -22 6 1 13 -11 16 -27 6 -27 7 -28 21 -11 11 14 12 19 3
22 -18 6 -16 33 2 33 9 0 15 -9 15 -25 0 -17 6 -25 18 -26 9 -1 22 -2 27 -4 6
-1 18 -3 28 -3 10 -1 22 -13 27 -26 7 -18 14 -23 30 -19 11 3 27 0 35 -7 8 -6
19 -9 25 -5 5 3 10 1 10 -4 0 -6 -8 -11 -17 -12 -11 0 -13 -3 -5 -6 6 -2 12
-18 12 -34 0 -22 -5 -29 -19 -29 -11 0 -23 5 -27 11 -4 8 -9 7 -15 -2 -5 -9
-14 -10 -31 -3 -13 6 -41 7 -63 3 -22 -4 -44 -4 -49 -1 -5 3 -41 7 -80 9 -39
2 -83 6 -98 7 -16 2 -35 4 -43 5 -9 0 -15 11 -15 25 0 13 -7 26 -15 30 -8 3
-15 1 -15 -5 0 -6 -10 -19 -22 -29 l-23 -19 25 5 c24 5 24 4 -4 -11 -32 -19
-93 -15 -108 7 -8 10 -11 10 -15 1 -6 -17 -54 -17 -47 0 2 7 -2 21 -10 32 -15
19 -15 19 -16 -11 0 -28 -4 -31 -47 -41 -28 -7 -52 -8 -58 -3 -7 6 -15 2 -23
-10 -7 -11 -8 -21 -2 -25 5 -3 0 -15 -11 -26 -17 -17 -25 -18 -54 -10 -43 12
-56 -3 -27 -31 20 -21 48 -17 36 5 -5 9 -4 9 6 0 16 -15 4 -33 -22 -33 -20 0
-20 0 2 -18 13 -11 19 -23 15 -34 -8 -21 -34 -31 -49 -20 -6 5 -19 12 -30 16
-16 5 -18 2 -14 -29 3 -27 0 -36 -14 -41 -21 -6 -24 -34 -4 -34 7 0 25 -9 40
-21 31 -24 50 -16 42 17 -7 27 8 31 37 10 17 -13 17 -15 -9 -40 -15 -13 -32
-22 -37 -19 -4 3 -7 -10 -5 -28 3 -32 5 -34 37 -31 34 4 34 4 19 -20 -9 -14
-13 -29 -10 -35 9 -13 69 -33 76 -26 3 3 12 0 21 -7 10 -8 19 -9 28 -3 13 10
89 -7 88 -20 -1 -4 -1 -10 0 -14 1 -5 0 -19 -1 -32 -1 -18 2 -22 14 -18 8 3
18 2 21 -3 8 -12 74 21 75 38 0 6 5 12 11 12 5 0 8 4 4 9 -3 5 -1 12 3 15 12
7 34 -36 30 -59 -5 -26 22 -31 29 -5 5 17 12 21 34 18 24 -4 28 -1 31 24 7 46
-12 72 -62 84 -41 10 -45 14 -51 48 -5 30 -2 40 15 51 11 8 26 15 33 15 8 0
19 12 25 26 8 17 18 24 29 21 10 -3 25 3 34 13 26 28 42 14 49 -43 3 -29 17
-74 31 -102 13 -27 25 -58 25 -67 0 -9 4 -19 9 -22 12 -8 3 -42 -15 -57 -10
-8 -10 -15 -2 -29 11 -17 12 -17 29 4 l18 21 1 -22 c0 -29 26 -30 35 -2 4 13
12 18 22 15 8 -3 18 -6 22 -6 4 0 13 -18 20 -40 13 -44 26 -51 34 -19 7 27 -1
49 -19 49 -8 0 -14 6 -14 13 0 12 10 11 58 -1 31 -8 62 -18 67 -22 6 -5 73 -8
150 -8 126 0 140 -1 138 -16 0 -11 4 -15 14 -12 8 3 11 2 8 -3 -3 -5 -1 -12 5
-16 5 -3 10 3 10 14 0 24 0 24 36 11 l27 -11 -21 -19 c-17 -16 -20 -25 -12
-44 5 -13 7 -26 4 -29 -3 -2 2 -7 11 -10 9 -4 15 -1 15 9 0 8 5 12 10 9 6 -3
10 1 10 9 0 9 5 16 11 16 5 0 7 -4 4 -10 -8 -13 39 -34 59 -27 22 8 20 27 -1
27 -19 1 -53 23 -53 35 0 4 6 5 14 2 7 -3 19 0 25 6 9 9 14 8 21 -3 5 -8 10
-11 10 -7 0 5 7 1 16 -7 10 -10 24 -14 40 -10 23 6 24 5 13 -20 -7 -14 -16
-23 -20 -20 -5 3 -9 -8 -9 -25 0 -16 -4 -33 -10 -36 -5 -3 -10 -13 -10 -22 0
-12 3 -13 13 -4 10 8 22 7 45 -1 24 -9 35 -9 43 -1 17 17 1 37 -17 22 -11 -9
-14 -7 -14 10 0 19 5 22 31 19 28 -3 36 -9 56 -47 1 -2 13 6 28 17 15 12 33
18 47 14 14 -3 19 -1 14 6 -4 7 -13 12 -21 12 -20 0 -46 30 -38 43 4 6 0 8
-10 4 -13 -5 -19 3 -28 36 -13 47 2 89 34 95 24 5 22 -26 -3 -46 -25 -21 -14
-39 25 -44 30 -3 32 0 21 38 -5 16 -2 23 13 27 10 2 25 1 32 -4 8 -5 10 -9 5
-9 -6 0 -1 -6 9 -14 17 -12 21 -12 33 5 13 19 38 28 27 9 -3 -5 -2 -10 3 -10
5 0 14 12 21 26 9 20 9 30 0 40 -8 9 -8 14 -1 14 6 0 14 -5 18 -11 5 -8 9 -8
14 1 10 16 2 46 -16 61 -24 20 -16 39 16 39 17 0 30 4 30 10 0 13 -70 9 -71
-4 -1 -6 -5 9 -10 34 -11 55 -4 86 16 70 11 -9 12 -7 8 9 -6 23 4 26 27 10 11
-8 12 -12 2 -16 -6 -2 -10 -9 -7 -13 8 -14 45 27 45 49 0 11 -4 23 -10 26 -5
3 -10 1 -10 -4 0 -6 -4 -11 -10 -11 -5 0 -10 11 -10 24 0 14 5 28 10 31 6 3
10 -1 10 -9 0 -9 7 -16 15 -16 8 0 15 6 15 14 0 8 -7 16 -15 20 -8 3 -15 12
-15 20 0 8 -5 16 -11 18 -9 3 -9 10 0 26 9 16 18 21 32 17 13 -4 19 -2 19 8 0
9 6 17 13 20 6 2 8 8 4 13 -5 5 -14 1 -21 -9 -18 -23 -32 -21 -40 6 -4 15 0
27 13 38 12 10 16 20 10 26 -15 15 9 174 31 205 24 33 11 45 -30 26 -33 -14
-34 -16 -21 -50 9 -25 -2 -68 -19 -68 -6 0 -13 13 -16 29 -6 30 -29 48 -39 31
-8 -13 -45 -13 -45 1 0 5 -4 8 -9 5 -5 -3 -12 1 -15 10 -8 21 -8 26 3 20 10
-6 21 16 21 41 0 8 9 28 21 44 16 22 17 29 6 29 -8 0 -20 -7 -27 -15 -7 -8
-23 -15 -36 -15 -56 0 -104 -54 -82 -94 10 -17 -6 -23 -17 -6 -3 6 -12 10 -20
10 -9 0 -12 -11 -10 -40 2 -32 -1 -44 -16 -53 -10 -6 -19 -19 -19 -28 0 -9 -6
-22 -14 -28 -22 -18 -31 5 -13 33 8 12 13 34 10 49 -4 20 1 32 22 50 34 29 28
67 -11 67 -15 0 -24 6 -24 15 0 18 5 18 31 5 26 -15 25 5 -3 47 -23 34 -68 46
-68 19 0 -7 -6 -19 -13 -25 -11 -8 -17 -5 -28 17 -8 15 -18 30 -24 34 -5 4 -9
19 -10 35 0 24 -5 28 -30 31 -53 5 -60 5 -70 2 -5 -2 -27 0 -47 4 -29 6 -45
19 -73 57 -41 58 -56 62 -48 15 5 -32 4 -34 -16 -29 -12 3 -26 14 -32 25 -7
13 -18 18 -30 15 -10 -3 -19 0 -19 5 0 6 -6 5 -15 -2 -20 -16 -25 -10 -28 29
-2 28 -25 45 -28 21 -1 -5 -2 -14 -3 -19 0 -5 -4 -12 -8 -16 -7 -7 -65 20 -86
41 -7 8 -19 14 -25 14 -8 0 -7 4 2 9 9 6 19 4 29 -6 18 -18 38 -2 28 22 -5 13
-13 16 -34 11 -15 -4 -31 -6 -37 -6 -5 0 -29 2 -53 4 -23 2 -48 9 -56 15 -7 6
-15 8 -18 5 -3 -3 -9 7 -12 21 -6 23 -11 26 -39 22 -24 -3 -41 2 -61 18 -24
19 -25 23 -11 35 13 11 18 10 33 -4 25 -22 54 -21 50 2 -2 9 -8 17 -13 17 -40
2 -123 44 -127 63 -3 12 -6 8 -11 -10z m541 -1050 c9 -9 17 -9 36 2 33 17 48
10 71 -36 22 -44 71 -94 90 -94 7 0 18 -7 25 -15 7 -8 16 -12 21 -9 5 3 9 -2
9 -10 0 -9 -5 -16 -11 -16 -6 0 6 -15 25 -34 20 -18 36 -42 36 -52 0 -14 3
-15 12 -6 26 26 77 2 58 -27 -7 -12 -14 -11 -44 3 -32 15 -159 39 -196 37
-113 -8 -151 -7 -185 3 l-40 12 39 38 c49 47 89 105 83 121 -3 7 -17 10 -34 8
-24 -4 -31 0 -41 22 -20 44 14 85 46 53z"/>
<path d="M15245 13494 c-4 -10 -11 -37 -16 -59 -15 -76 -37 -156 -47 -168 -5
-7 -12 -30 -15 -52 -14 -86 -25 -124 -41 -140 -9 -10 -15 -22 -13 -28 5 -16
75 -29 119 -24 21 3 41 1 44 -4 23 -38 35 72 13 128 l-11 28 -11 -24 c-9 -19
-9 -25 1 -29 16 -5 15 -47 -2 -61 -11 -9 -14 6 -15 91 -2 57 -4 119 -6 138 -2
19 5 60 16 91 17 49 18 60 6 94 -12 33 -15 36 -22 19z"/>
<path d="M13707 13469 c-5 -17 -11 -20 -35 -14 -24 5 -31 3 -35 -12 -4 -16 -5
-16 -6 -1 -1 11 -6 15 -15 12 -8 -3 -23 -1 -32 4 -18 10 -44 -6 -44 -27 0 -6
-4 -11 -8 -11 -4 0 -14 -16 -21 -35 -7 -20 -25 -43 -39 -52 -15 -9 -35 -26
-44 -37 -15 -18 -18 -19 -18 -4 0 9 5 20 10 23 6 4 8 10 5 15 -3 5 -1 19 5 30
8 16 15 19 24 11 7 -6 15 -8 18 -5 9 8 -3 42 -15 47 -21 8 -57 -12 -69 -38 -6
-14 -15 -25 -20 -25 -5 0 -8 -8 -5 -17 2 -10 -3 -31 -12 -48 -15 -30 -17 -36
-19 -68 -1 -10 -6 -15 -12 -12 -17 11 -12 116 7 137 20 22 6 42 -32 44 -18 1
-27 -5 -30 -20 -13 -66 -15 -95 -5 -101 16 -10 12 -45 -5 -45 -25 0 -21 -124
4 -149 13 -13 21 -15 24 -8 7 21 14 -17 8 -42 -6 -23 -7 -23 -24 -7 -16 17
-17 16 -23 -14 -5 -21 -15 -35 -30 -41 -13 -4 -24 -13 -24 -18 0 -20 26 -57
38 -53 15 5 16 -10 0 -26 -14 -14 -11 -104 5 -114 7 -4 5 -16 -5 -39 -9 -18
-14 -38 -11 -44 2 -7 -3 -15 -11 -18 -11 -4 -16 -1 -16 10 0 26 -13 5 -15 -25
-4 -42 6 -77 16 -60 6 9 9 5 9 -13 0 -18 6 -28 20 -32 12 -3 20 -14 20 -26 0
-12 5 -21 10 -21 16 0 12 57 -5 64 -8 3 -15 10 -15 16 0 13 37 13 45 -1 5 -7
12 -5 23 4 10 9 31 17 47 18 17 2 35 6 40 10 6 3 21 5 35 3 14 -2 48 -6 75 -8
80 -6 149 -18 161 -27 6 -5 32 -12 58 -15 37 -6 46 -4 44 7 -2 8 4 14 12 14 8
0 15 -7 15 -15 0 -10 16 -17 53 -22 35 -5 62 -16 80 -33 44 -41 70 -24 40 25
-12 18 -8 25 35 61 26 22 47 45 47 51 0 7 8 20 17 31 10 10 20 42 23 70 5 56
24 71 53 42 9 -8 22 -15 29 -15 44 0 136 -138 124 -186 -5 -19 -1 -22 33 -28
26 -4 44 -14 55 -31 9 -14 24 -25 33 -25 9 0 25 -7 35 -17 10 -9 18 -12 18 -6
0 15 -39 91 -50 98 -5 3 -10 19 -10 34 0 16 -11 40 -25 55 -14 15 -25 32 -25
37 0 19 -95 119 -112 119 -11 0 -18 8 -18 19 0 13 -5 18 -18 14 -10 -2 -26 5
-36 16 -12 13 -31 21 -51 21 -20 0 -39 8 -51 21 -10 11 -26 18 -34 16 -9 -2
-32 4 -50 13 -23 12 -47 16 -72 12 -47 -6 -72 11 -57 40 6 10 16 17 22 15 7
-2 20 0 29 5 22 11 78 -16 78 -37 0 -8 5 -15 10 -15 6 0 10 9 10 19 0 11 6 21
12 23 21 7 -5 51 -33 56 -13 2 -54 5 -90 6 -56 2 -71 6 -98 29 -21 18 -27 27
-17 27 9 0 16 5 16 10 0 6 9 10 20 10 11 0 20 -6 20 -14 0 -27 31 -26 57 2 13
15 35 27 46 28 12 1 34 4 50 9 25 7 27 5 27 -24 0 -17 5 -31 10 -31 11 0 13
11 10 53 -1 26 9 35 24 20 12 -13 126 -9 126 3 0 6 12 10 26 8 14 -1 41 7 60
18 32 19 36 19 68 4 19 -9 39 -16 45 -16 14 0 14 47 0 55 -6 4 -7 14 -3 24 3
9 7 28 9 43 1 22 -1 26 -12 16 -18 -15 -29 -2 -14 16 17 20 64 24 77 7 9 -11
7 -23 -7 -48 -23 -41 -24 -67 -3 -87 14 -14 18 -14 45 -1 27 15 41 45 19 45
-5 0 -1 15 10 33 30 48 27 129 -4 160 -25 25 -51 22 -41 -6 4 -8 1 -25 -5 -37
-9 -16 -17 -20 -33 -15 -12 4 -32 6 -44 6 -14 0 -23 5 -23 14 0 23 -18 27 -56
13 -30 -10 -42 -10 -79 3 -38 14 -46 14 -56 2 -9 -10 -9 -17 -1 -25 22 -22 14
-41 -13 -36 -14 3 -28 1 -31 -3 -11 -19 -44 -8 -58 20 -13 25 -22 29 -77 35
-34 4 -72 14 -84 22 -12 7 -46 15 -76 16 -30 2 -60 9 -67 16 -20 18 -39 15
-45 -9z m-72 -686 c4 -38 13 -90 20 -118 15 -60 12 -67 -21 -55 -14 6 -30 7
-35 4 -6 -3 -19 2 -29 11 -10 9 -43 19 -76 22 -33 3 -73 14 -90 24 -17 11 -39
19 -48 19 -14 0 -15 4 -6 20 18 34 85 72 129 73 27 1 45 8 55 22 13 18 17 18
37 7 18 -12 23 -12 30 0 5 7 9 19 9 26 0 6 4 12 9 12 5 0 13 -30 16 -67z"/>
<path d="M15332 13403 c-7 -12 -12 -35 -12 -52 0 -16 -4 -33 -10 -36 -5 -3
-10 -17 -10 -31 0 -31 27 -32 32 -1 2 17 11 23 37 25 19 2 44 -1 55 -6 61 -29
137 -62 141 -62 3 0 24 -8 48 -19 23 -10 62 -26 87 -36 25 -10 79 -34 120 -53
41 -20 76 -35 77 -35 2 1 28 -11 58 -27 71 -37 147 -49 170 -26 9 9 13 16 8
16 -4 0 -1 5 7 10 10 6 11 10 3 10 -7 0 -13 9 -13 20 0 17 -3 19 -19 10 -25
-13 -51 -3 -51 20 0 19 -25 34 -40 25 -10 -6 -97 32 -106 46 -3 5 -16 9 -30 9
-13 0 -24 5 -24 11 0 6 -9 9 -19 6 -12 -3 -22 1 -25 9 -3 8 -10 14 -16 14 -6
0 -27 7 -48 16 -20 10 -44 16 -53 15 -9 -1 -19 7 -22 18 -3 14 -11 18 -26 14
-14 -4 -36 4 -62 23 -31 21 -53 28 -88 28 -25 0 -52 6 -59 13 -7 7 -31 13 -52
13 -29 0 -39 4 -42 18 -3 15 -5 14 -16 -5z"/>
<path d="M9660 13180 c0 -15 -7 -20 -27 -20 -34 0 -46 -8 -62 -38 -17 -31 -8
-37 29 -22 39 16 46 8 55 -54 3 -27 10 -57 15 -67 15 -27 12 -49 -7 -49 -14 0
-15 -2 -4 -9 11 -7 11 -9 0 -14 -8 -3 -2 -6 12 -6 23 -1 26 2 22 27 -3 23 -2
24 6 7 9 -19 10 -18 10 5 1 14 8 36 17 48 8 12 11 22 6 22 -5 0 -12 11 -14 25
-3 14 -2 25 2 25 16 0 18 30 3 45 -14 14 -13 15 12 11 16 -3 25 -1 23 6 -2 6
-13 13 -23 14 -21 3 -45 30 -45 51 0 7 -7 13 -15 13 -8 0 -15 -9 -15 -20z"/>
<path d="M14034 13006 c-11 -45 -1 -54 52 -48 36 4 49 1 56 -11 4 -9 15 -14
23 -11 8 4 15 1 15 -5 0 -6 18 -11 42 -11 28 0 51 -8 72 -24 17 -13 40 -26 51
-29 11 -4 29 -22 40 -41 36 -62 98 -146 106 -146 5 0 9 9 9 21 0 11 5 29 10
40 7 11 7 19 1 19 -5 0 -11 -6 -14 -12 -3 -7 -12 3 -20 23 -9 19 -23 41 -31
49 -9 7 -16 16 -16 21 0 15 -77 89 -93 89 -9 0 -19 5 -22 11 -4 6 -21 9 -39 8
-17 -1 -53 8 -81 20 -27 12 -63 25 -80 28 -16 4 -40 13 -52 20 -21 14 -23 13
-29 -11z"/>
<path d="M9229 12927 c-35 -27 -41 -107 -21 -272 18 -140 40 -180 89 -161 12
5 12 10 -1 33 -24 46 -42 174 -41 297 0 64 -2 116 -5 116 -3 0 -12 -6 -21 -13z"/>
<path d="M9092 12167 c-16 -19 -23 -155 -8 -161 7 -3 7 -5 0 -5 -14 -1 2 -93
26 -146 26 -56 93 -129 147 -160 53 -29 119 -35 109 -9 -3 9 -6 18 -6 20 0 2
-9 4 -20 4 -43 0 -110 58 -199 173 -19 23 -33 127 -20 143 6 7 4 16 -6 24 -12
10 -12 15 5 38 23 32 38 92 22 92 -6 0 -13 -6 -15 -12 -4 -10 -7 -10 -15 0 -7
11 -11 10 -20 -1z"/>
<path d="M13034 11440 c-18 -4 -42 -17 -55 -28 -12 -12 -31 -24 -41 -28 -10
-3 -18 -9 -18 -14 0 -5 -20 -23 -45 -40 -25 -17 -43 -36 -39 -41 8 -14 54 -2
77 19 10 9 24 17 32 18 8 1 27 11 42 22 46 32 128 46 128 22 0 -10 -8 -14 -23
-12 -20 3 -22 0 -16 -22 5 -22 3 -26 -17 -26 -17 0 -28 -9 -38 -31 -17 -39 -8
-47 29 -25 17 9 36 14 42 9 7 -4 32 -9 55 -11 33 -2 43 0 43 11 0 10 -16 17
-50 22 -34 5 -50 12 -50 22 0 8 5 11 10 8 17 -10 41 16 35 36 -4 13 -1 19 8
19 16 0 12 45 -6 68 -10 13 -54 14 -103 2z"/>
<path d="M9378 10586 c-25 -6 -50 -14 -54 -18 -4 -5 -20 -8 -35 -8 -15 0 -31
-4 -34 -10 -3 -5 -21 -10 -38 -10 -18 0 -54 -8 -82 -17 -27 -9 -84 -20 -125
-24 -124 -12 -262 -49 -229 -61 31 -11 423 58 519 92 14 4 47 14 73 22 84 23
88 53 5 34z"/>
<path d="M16680 8137 c0 -7 11 -17 84 -82 32 -27 74 -68 94 -90 20 -22 84 -87
142 -145 104 -104 191 -202 242 -270 14 -19 58 -69 97 -110 40 -41 97 -112
127 -157 30 -45 59 -85 64 -88 5 -3 30 -37 55 -75 24 -39 49 -70 54 -70 5 0
16 -15 24 -32 9 -18 29 -46 46 -62 17 -17 31 -37 31 -46 0 -10 14 -34 30 -55
17 -21 30 -42 30 -48 0 -6 11 -25 25 -43 14 -18 25 -37 25 -42 0 -4 11 -19 25
-32 14 -13 25 -32 25 -42 0 -11 16 -40 35 -65 19 -25 35 -50 35 -56 0 -6 13
-38 29 -71 30 -64 66 -144 83 -186 6 -14 14 -32 19 -40 5 -8 12 -22 16 -30 3
-8 15 -27 25 -42 10 -14 18 -36 18 -47 0 -26 64 -158 90 -186 10 -11 21 -31
25 -44 4 -14 20 -50 36 -80 16 -31 29 -61 29 -67 0 -6 11 -23 25 -38 26 -28
42 -74 49 -146 2 -25 7 -76 12 -113 8 -77 -8 -280 -33 -427 -9 -52 -20 -165
-24 -250 -8 -179 -17 -316 -25 -380 -11 -82 -9 -173 2 -177 11 -4 24 184 24
348 0 55 4 78 13 82 11 4 15 47 20 182 3 106 10 182 16 188 6 6 11 52 11 108
0 55 4 101 10 104 6 4 10 65 10 151 0 89 -4 144 -10 144 -6 0 -10 27 -10 60 0
33 -4 60 -10 60 -5 0 -10 14 -10 30 0 20 -9 39 -25 54 -14 13 -25 33 -25 45 0
11 -3 21 -7 21 -9 0 -33 49 -33 67 0 7 -4 13 -10 13 -5 0 -10 9 -10 20 0 11
-9 25 -20 32 -11 7 -20 23 -20 36 0 15 -7 26 -19 29 -14 3 -21 17 -26 49 -3
24 -9 44 -13 44 -9 0 -32 49 -32 67 0 7 -4 13 -9 13 -5 0 -12 18 -16 40 -4 22
-12 40 -20 40 -7 0 -15 16 -18 35 -3 19 -15 48 -26 64 -12 16 -21 36 -21 45 0
21 -21 66 -32 66 -4 0 -8 8 -8 18 0 9 -7 30 -15 46 -8 15 -15 35 -15 42 0 8
-4 14 -10 14 -5 0 -10 9 -10 20 0 11 -4 20 -10 20 -5 0 -10 6 -10 13 0 7 -9
18 -20 25 -11 7 -20 21 -20 31 0 10 -11 35 -25 55 -14 20 -25 40 -25 44 0 4
-13 22 -30 40 -16 18 -30 39 -30 46 0 7 -9 21 -20 31 -11 10 -20 26 -20 35 0
9 -11 27 -25 40 -14 13 -25 29 -25 37 0 7 -4 13 -10 13 -5 0 -10 6 -10 13 0 7
-11 23 -25 35 -14 12 -25 26 -25 32 0 5 -7 10 -15 10 -8 0 -18 12 -21 27 -4
15 -20 41 -36 58 -15 16 -28 36 -28 44 0 7 -10 24 -22 36 -30 30 -43 47 -57
74 -7 12 -28 38 -47 57 -19 20 -34 40 -34 45 0 5 -7 9 -15 9 -8 0 -15 5 -15
11 0 6 -15 25 -33 43 -18 18 -36 40 -40 49 -3 9 -13 17 -22 17 -10 0 -15 9
-15 26 0 17 -6 28 -20 31 -11 3 -20 11 -20 18 0 6 -18 31 -40 54 -22 23 -40
46 -40 51 0 6 -6 10 -14 10 -8 0 -18 9 -21 21 -4 11 -20 25 -36 31 -16 5 -29
13 -29 17 0 3 -12 20 -27 37 -16 17 -47 51 -70 77 -22 26 -45 47 -51 47 -5 0
-24 18 -42 40 -18 22 -39 40 -46 40 -8 0 -14 5 -14 10 0 6 -6 10 -14 10 -8 0
-18 9 -21 20 -3 11 -10 20 -15 20 -5 0 -15 3 -24 6 -9 3 -16 4 -16 1z"/>
<path d="M12164 6935 c-3 -8 -3 -19 0 -24 12 -19 -5 -60 -27 -63 -11 -2 -22
-9 -25 -16 -3 -10 6 -12 34 -10 38 3 39 2 42 -34 3 -29 -1 -38 -17 -43 -11 -3
-22 -14 -26 -23 -3 -9 -21 -27 -40 -40 -34 -22 -64 -66 -53 -77 6 -6 64 23 85
42 9 8 21 9 37 3 13 -5 26 -7 29 -4 12 13 63 -108 58 -139 -1 -12 7 -21 27
-28 23 -8 29 -15 25 -30 -3 -11 2 -28 11 -38 11 -12 15 -27 11 -44 -5 -20 -2
-27 14 -32 12 -3 21 -13 21 -21 0 -8 5 -14 10 -14 15 0 12 22 -10 63 -11 20
-20 48 -20 61 0 13 -7 29 -15 36 -8 7 -15 18 -15 26 0 7 -11 39 -24 71 -13 32
-31 94 -40 138 -9 44 -21 96 -26 115 -5 19 -15 59 -22 88 -12 51 -32 68 -44
37z"/>
<path d="M7500 6198 c0 -7 13 -26 28 -43 15 -16 39 -46 52 -65 13 -19 35 -45
49 -58 66 -59 110 -108 116 -129 9 -36 35 -29 35 10 0 17 3 43 7 56 5 21 4 22
-14 13 -17 -10 -35 4 -142 109 -67 65 -124 119 -127 119 -2 0 -4 -6 -4 -12z"/>
<path d="M11667 5314 c-4 -4 -7 -20 -7 -35 0 -15 -4 -30 -9 -33 -4 -3 -14 -34
-20 -68 -11 -55 -77 -265 -101 -323 -5 -11 -19 -45 -30 -75 -12 -30 -26 -63
-32 -74 -6 -12 -6 -22 0 -28 13 -13 42 29 42 62 0 14 8 37 18 50 17 25 22 36
62 145 13 33 29 67 36 76 8 8 14 23 14 31 0 9 6 31 14 49 7 19 12 48 9 65 -4
25 0 34 21 48 31 20 34 36 5 36 -21 0 -21 1 -4 26 15 23 15 28 3 40 -8 8 -17
11 -21 8z"/>
<path d="M7917 5213 c-11 -10 -8 -23 4 -23 6 0 17 -7 25 -15 9 -8 23 -15 33
-15 28 0 73 -55 116 -143 33 -67 47 -86 80 -105 40 -22 81 -26 79 -7 -1 5 -14
17 -30 26 -16 8 -42 37 -59 63 -27 45 -28 49 -12 61 16 12 15 15 -20 41 -21
16 -51 39 -68 52 -25 18 -127 72 -139 72 -1 0 -6 -3 -9 -7z"/>
<path d="M8154 4490 c1 -62 -2 -71 -22 -85 -16 -12 -21 -22 -16 -41 4 -17 2
-24 -8 -24 -22 0 -54 -41 -56 -70 0 -15 -14 -36 -31 -51 -32 -26 -38 -52 -21
-79 5 -8 10 -11 10 -7 0 4 6 2 14 -5 8 -7 12 -16 9 -21 -7 -11 -43 12 -43 28
0 9 -10 15 -26 15 -35 0 -28 -30 11 -49 17 -8 32 -18 33 -23 6 -14 32 -9 53
11 12 11 18 24 14 30 -10 17 21 13 35 -4 17 -21 34 -19 56 7 19 21 19 21 -1
15 -19 -7 -19 -7 -1 8 10 8 23 12 27 9 5 -3 9 2 9 10 0 28 18 17 25 -14 l7
-31 19 25 c12 15 26 22 37 19 10 -2 25 4 35 14 17 20 17 21 -21 88 -21 38 -82
176 -82 185 0 6 -4 10 -9 10 -10 0 -24 32 -27 63 -1 9 -2 22 -3 27 0 6 -7 10
-15 10 -10 0 -13 -17 -12 -70z"/>
<path d="M15215 4510 c10 -16 -14 -50 -35 -50 -15 0 -20 -7 -20 -25 0 -14 -7
-28 -15 -31 -18 -7 -20 -30 -2 -37 9 -4 9 -6 -1 -6 -8 -1 -16 8 -19 19 -4 16
-7 17 -19 5 -8 -7 -14 -22 -14 -33 0 -11 -9 -30 -19 -44 -13 -15 -18 -33 -14
-46 3 -12 1 -28 -5 -35 -33 -40 -85 -387 -62 -411 5 -5 11 3 15 20 3 16 10 45
15 64 5 19 12 53 15 75 13 94 18 115 31 126 8 6 17 29 21 51 3 22 12 42 19 45
8 3 14 18 14 33 0 34 27 100 40 100 6 0 10 9 10 20 0 11 9 28 20 37 11 10 20
30 20 46 0 15 9 37 20 49 25 28 25 38 -1 38 -11 0 -17 -4 -14 -10z"/>
<path d="M8342 4084 c-7 -8 -17 -12 -23 -9 -15 10 -10 -21 9 -54 9 -17 25 -34
35 -37 11 -3 17 -16 17 -35 0 -33 -13 -37 -32 -11 -7 10 -26 18 -43 19 -16 1
-24 -1 -17 -4 6 -2 12 -11 12 -18 0 -8 9 -16 20 -20 15 -5 18 -12 13 -36 -3
-17 -1 -29 5 -29 12 0 22 -59 10 -66 -14 -9 -9 -51 8 -65 10 -8 14 -24 12 -46
-3 -21 1 -34 10 -38 7 -3 10 -9 7 -15 -10 -15 -34 14 -41 50 -4 17 -10 33 -15
35 -13 8 -22 -16 -11 -27 8 -8 8 -17 1 -30 -6 -12 -6 -25 1 -38 6 -11 7 -20 3
-21 -42 -4 -49 -9 -90 -67 -9 -13 -37 -34 -62 -47 -25 -13 -52 -33 -59 -45
-10 -16 -20 -20 -36 -16 -16 4 -29 -1 -44 -18 -11 -14 -18 -27 -15 -30 7 -6
-24 -1 -48 9 -9 3 -23 -1 -33 -10 -9 -9 -20 -13 -26 -10 -5 3 -10 2 -10 -3 0
-6 -11 -13 -25 -16 -14 -4 -25 -13 -25 -20 0 -20 45 -13 71 10 16 15 25 16 48
8 15 -6 42 -10 59 -9 17 1 30 -3 29 -9 -2 -10 51 -13 77 -3 24 9 20 47 -4 47
-13 0 -20 -7 -20 -20 0 -24 -13 -26 -35 -4 -24 24 -6 35 59 39 42 2 56 -1 56
-11 0 -20 10 -17 31 8 11 11 19 18 19 14 0 -4 7 0 16 9 9 9 23 14 30 11 7 -3
16 -1 19 4 4 6 22 10 41 10 42 0 44 17 4 32 -36 12 -35 35 1 30 63 -9 104 -7
102 5 -4 19 35 35 68 28 22 -5 29 -3 29 9 0 9 5 16 10 16 6 0 10 -12 10 -26 0
-16 4 -23 11 -18 8 4 8 0 0 -15 -10 -17 -9 -21 4 -21 8 0 15 6 15 13 0 7 15
18 34 25 23 9 35 20 38 37 3 14 1 25 -3 25 -5 0 -9 5 -9 11 0 6 -9 22 -20 36
-11 14 -17 29 -14 34 3 5 -1 6 -9 3 -17 -6 -32 30 -36 88 -1 11 -6 15 -15 12
-9 -3 -21 5 -31 20 -10 14 -24 26 -33 26 -8 0 -13 3 -9 6 3 3 -6 27 -19 54
-13 26 -24 62 -24 79 0 29 -9 37 -35 31 -5 -1 -7 1 -4 5 8 7 -7 82 -23 113
-13 25 -27 28 -46 6z"/>
<path d="M10700 3702 c-8 -4 -28 -16 -43 -26 -25 -17 -28 -24 -25 -70 3 -58
23 -62 24 -4 1 38 32 97 43 81 3 -5 22 -21 41 -36 33 -24 35 -29 34 -79 -1
-29 -6 -66 -13 -82 -8 -20 -8 -32 -1 -41 8 -9 8 -15 0 -20 -5 -3 -10 -1 -10 5
0 6 -4 9 -9 6 -5 -4 -22 -1 -37 4 -34 13 -37 10 -24 -25 8 -22 15 -26 35 -23
14 3 30 -1 36 -9 10 -11 15 -10 32 8 16 17 18 25 8 45 -7 16 -8 32 -2 42 9 18
6 135 -4 184 -9 40 -46 57 -85 40z"/>
<path d="M15128 3342 c-7 -25 -45 -31 -54 -7 -4 8 -14 15 -23 14 -10 0 -11 -2
-3 -6 17 -7 15 -64 -4 -88 -15 -19 -15 -19 -12 10 2 22 -2 30 -15 33 -16 3
-18 0 -11 -20 4 -12 7 -27 6 -33 -5 -50 -3 -196 3 -217 4 -17 1 -39 -10 -62
-11 -22 -16 -52 -13 -81 2 -25 0 -45 -4 -45 -4 0 -8 -17 -10 -37 -2 -23 -8
-37 -15 -36 -7 2 -10 -4 -7 -12 9 -24 -16 -75 -36 -75 -10 0 -21 6 -23 13 -6
14 -10 -22 -7 -74 1 -22 -5 -41 -14 -49 -14 -11 -22 -8 -54 14 -20 15 -53 38
-72 51 -19 13 -42 31 -51 40 -9 8 -20 15 -26 15 -6 0 -13 7 -17 15 -3 8 -12
15 -21 15 -8 0 -15 9 -15 20 0 11 -3 19 -7 18 -26 -5 -82 36 -102 75 -8 15
-23 27 -33 27 -10 0 -23 10 -28 23 -15 37 -66 91 -78 83 -7 -4 -12 -11 -12
-15 0 -10 31 -41 64 -65 14 -10 26 -27 26 -38 0 -10 6 -21 14 -24 21 -8 40
-62 40 -114 1 -36 4 -45 18 -44 18 2 24 -15 33 -106 6 -53 10 -64 23 -66 25
-3 42 -20 42 -41 0 -19 -3 -23 -12 -15 -20 16 -118 31 -118 18 0 -5 -7 -3 -15
5 -18 18 -10 49 13 49 8 0 12 -3 9 -7 -4 -3 1 -12 11 -19 26 -20 38 -17 16 5
-10 10 -30 31 -43 47 -23 26 -25 27 -32 8 -6 -17 -7 -18 -14 -1 -8 18 -55 24
-55 6 0 -5 5 -7 12 -3 8 5 9 2 5 -10 -4 -10 -7 -20 -7 -22 0 -3 -4 -2 -10 1
-6 3 -7 -1 -4 -9 3 -9 15 -16 25 -16 14 0 19 -7 19 -30 0 -20 5 -30 15 -30 9
0 15 -9 15 -25 0 -14 3 -25 8 -26 4 0 15 -2 25 -4 9 -2 17 1 17 7 0 7 5 6 14
-1 7 -6 21 -9 30 -5 12 5 16 0 16 -21 0 -34 18 -67 32 -59 8 5 9 -5 5 -33 -7
-45 11 -65 33 -37 17 20 30 17 30 -6 0 -11 -7 -20 -15 -20 -9 0 -19 -9 -23
-19 -4 -11 -26 -40 -49 -65 -24 -24 -43 -49 -43 -54 0 -5 -9 -19 -20 -32 -18
-21 -19 -26 -6 -38 9 -9 11 -21 6 -31 -15 -30 -30 -110 -23 -127 3 -9 0 -20
-8 -25 -11 -7 -12 -12 -1 -29 15 -25 17 -64 2 -40 -8 13 -10 12 -10 -2 0 -10
-4 -18 -10 -18 -18 0 -10 -56 11 -78 14 -15 19 -33 17 -55 -3 -28 -6 -32 -30
-30 -25 2 -27 -1 -24 -28 2 -17 8 -35 14 -41 8 -8 9 -4 5 11 -3 12 -2 21 3 20
34 -6 44 2 44 36 0 19 3 35 8 36 54 8 78 6 90 -9 19 -24 34 -2 23 34 -39 131
-48 299 -16 333 8 10 15 29 15 42 0 32 99 139 128 139 12 0 23 9 27 21 11 34
49 21 53 -18 3 -28 1 -32 -14 -26 -14 5 -16 3 -9 -13 12 -28 19 -154 9 -154
-5 0 -18 11 -28 25 -10 13 -22 22 -27 20 -4 -3 -12 3 -18 12 -6 10 -10 14 -11
8 0 -24 48 -91 78 -108 39 -23 106 -32 99 -14 -3 7 -9 11 -15 10 -36 -8 -42
150 -8 202 18 28 15 52 -19 130 -12 28 -25 82 -28 121 -6 64 -5 74 15 100 30
39 48 52 81 59 15 4 25 10 22 15 -7 12 27 22 37 12 6 -6 23 -5 44 1 43 13 42
38 -4 52 -30 8 -32 12 -32 52 0 24 4 43 8 43 9 0 10 8 18 143 l6 107 30 0 c28
0 29 2 23 33 -4 17 -14 45 -22 60 -8 16 -11 36 -7 45 4 10 8 44 10 77 2 46 8
64 23 77 12 9 21 21 21 26 0 5 9 21 21 36 16 21 19 32 12 53 -9 27 -10 27 -15
5z"/>
<path d="M5240 2863 c-10 -12 -11 -18 -2 -21 14 -4 16 -42 2 -42 -5 0 -8 -13
-6 -30 2 -16 -1 -30 -6 -30 -15 0 -38 -27 -38 -44 0 -9 -9 -24 -20 -33 -11
-10 -20 -24 -20 -33 0 -9 -9 -23 -20 -33 -11 -9 -20 -23 -20 -31 0 -7 -7 -19
-15 -26 -8 -7 -15 -20 -15 -29 0 -9 -9 -22 -20 -29 -11 -7 -20 -21 -20 -32 0
-11 -11 -30 -25 -42 -14 -12 -25 -29 -25 -38 0 -8 -9 -22 -20 -30 -11 -8 -20
-22 -20 -32 0 -9 -4 -20 -10 -23 -5 -3 -10 -15 -10 -25 0 -11 -9 -24 -20 -30
-11 -6 -20 -19 -20 -30 0 -17 -75 -99 -153 -169 -45 -39 -30 -43 21 -7 75 55
161 148 180 196 25 63 52 107 90 150 17 21 32 42 32 49 0 6 15 31 34 55 18 24
39 65 47 90 7 25 17 46 21 46 4 0 26 32 48 70 22 39 45 70 50 70 6 0 10 29 10
65 0 67 -5 76 -30 48z"/>
<path d="M15445 2754 c-9 -10 -27 -18 -40 -20 -13 -1 -36 -9 -52 -18 -43 -24
-177 -48 -206 -37 -14 6 -27 7 -30 5 -3 -3 -23 -5 -46 -6 -34 0 -41 -4 -41
-19 0 -25 26 -35 59 -23 14 5 51 6 81 3 44 -6 59 -4 74 9 17 16 19 16 29 0 10
-15 14 -14 46 11 20 16 56 32 81 36 56 9 104 43 89 62 -15 17 -24 16 -44 -3z"/>
<path d="M8083 2592 c-28 -3 -56 -30 -33 -33 6 -1 15 -3 20 -4 6 -1 14 -3 19
-4 5 0 11 -8 15 -16 7 -20 -25 -73 -41 -68 -7 3 -13 -2 -13 -10 0 -9 -8 -18
-19 -22 -14 -4 -18 -15 -17 -45 0 -21 -3 -42 -6 -46 -4 -3 -30 -6 -58 -5 -40
0 -50 -3 -50 -15 0 -15 -3 -15 -26 1 -29 19 -51 8 -40 -20 4 -12 10 -13 24 -6
27 15 44 -1 37 -35 -5 -20 -4 -25 3 -15 5 7 15 10 21 7 14 -9 10 16 -4 26 -9
7 26 11 42 6 4 -2 7 -30 8 -63 0 -33 4 -66 9 -73 6 -10 2 -10 -21 0 -15 7 -31
17 -35 23 -4 5 -8 0 -8 -11 0 -29 -41 -54 -89 -54 l-40 0 26 -26 c18 -18 28
-22 33 -14 9 15 100 3 100 -14 0 -6 7 -3 14 6 7 10 16 15 19 11 4 -3 7 6 7 20
0 15 -6 27 -12 28 -7 0 -4 4 7 8 11 5 21 18 21 30 3 44 4 47 14 31 7 -11 9 -1
8 35 -1 48 -15 75 -37 75 -6 0 -11 6 -11 14 0 9 7 12 20 9 12 -3 18 -8 15 -11
-9 -9 17 -32 37 -32 10 0 22 8 25 18 4 9 13 23 21 31 7 7 11 20 8 27 -3 8 -2
14 2 14 4 0 12 12 19 26 10 21 9 23 -1 15 -13 -11 -26 -5 -26 10 0 5 13 15 29
24 22 11 29 21 26 36 -3 12 -7 24 -10 27 -2 3 0 11 7 19 8 10 8 17 0 25 -6 6
-8 17 -5 26 4 9 2 13 -4 9 -6 -4 -13 -4 -15 0 -1 5 -17 7 -35 5z"/>
<path d="M10746 2220 c-18 -81 -18 -84 0 -97 17 -13 17 -14 -2 -27 -14 -11
-21 -11 -26 -3 -4 7 -8 -5 -8 -26 0 -21 -5 -47 -10 -58 -8 -13 -7 -25 1 -40 9
-17 7 -25 -8 -42 -24 -27 -20 -67 6 -60 26 7 54 69 41 93 -14 27 -13 37 11 59
18 17 22 33 25 110 1 50 0 110 -4 132 l-7 42 -19 -83z"/>
<path d="M7530 2155 c0 -9 18 -28 39 -43 39 -27 81 -96 81 -132 0 -10 5 -22
10 -25 10 -6 7 -87 -4 -116 -4 -8 -3 -26 2 -40 6 -16 4 -32 -5 -49 l-13 -25 0
28 c0 15 -5 27 -11 27 -5 0 -7 -4 -4 -10 3 -5 1 -10 -4 -10 -6 0 -12 8 -13 18
0 9 -4 -3 -7 -28 -4 -33 -12 -47 -29 -56 -21 -10 -22 -13 -8 -27 9 -9 16 -23
16 -31 0 -13 -5 -14 -27 -5 -18 7 -30 6 -37 -1 -17 -17 -46 -11 -55 13 -5 12
-6 26 -3 31 3 5 0 6 -6 2 -6 -3 -13 -2 -17 4 -11 18 -25 10 -25 -15 0 -17 8
-29 25 -37 14 -6 26 -18 27 -27 0 -9 2 -22 2 -29 1 -15 27 -33 38 -26 4 3 5
-2 2 -10 -3 -9 -10 -16 -16 -16 -5 0 -8 -6 -7 -12 4 -31 -2 -59 -11 -53 -5 3
-10 2 -10 -4 0 -5 5 -11 12 -13 20 -7 0 -38 -24 -38 -24 0 -63 20 -41 20 7 0
10 7 7 15 -7 16 -39 20 -48 6 -3 -5 1 -15 10 -22 8 -7 22 -25 30 -41 13 -25
13 -29 -6 -40 -24 -15 -26 -28 -5 -28 8 0 15 -7 15 -15 0 -9 -9 -15 -23 -15
-32 0 -84 -27 -91 -47 -6 -14 1 -15 53 -10 36 4 63 3 66 -3 4 -6 -11 -10 -37
-10 -52 0 -81 -14 -48 -23 18 -5 20 -9 11 -25 -6 -11 -8 -22 -4 -26 3 -3 -7
-11 -23 -18 -20 -9 -28 -19 -26 -33 3 -26 -44 -51 -52 -28 -10 24 -7 33 9 27
8 -4 15 -1 15 5 0 6 -10 11 -23 11 -16 0 -26 -9 -34 -30 -6 -16 -7 -30 -2 -30
5 0 9 -7 9 -15 0 -8 -6 -15 -14 -15 -19 0 -28 -27 -10 -34 8 -3 14 0 14 7 0 6
7 2 15 -10 8 -12 12 -28 9 -37 -4 -11 -1 -16 10 -16 9 0 16 -7 16 -15 0 -11
-12 -15 -48 -15 -27 0 -55 -6 -64 -12 -20 -17 -30 -46 -18 -53 6 -4 10 -26 10
-50 0 -35 4 -45 20 -50 19 -6 18 -9 -12 -46 -28 -35 -37 -40 -67 -37 -44 4
-51 24 -12 33 34 7 46 28 25 45 -8 7 -14 20 -14 29 0 19 -196 225 -223 234 -9
4 -22 18 -29 32 -7 16 -24 29 -47 35 -44 12 -56 20 -64 43 -4 10 -21 25 -38
35 -37 21 -135 93 -169 125 -25 24 -88 57 -109 57 -25 0 4 -29 50 -50 27 -13
72 -45 100 -72 27 -26 56 -51 63 -55 8 -4 43 -34 78 -66 68 -62 68 -63 112
-107 16 -17 33 -30 37 -30 5 0 9 -10 9 -22 0 -19 -2 -20 -10 -8 -6 9 -10 11
-10 3 0 -7 -7 -10 -15 -7 -20 8 -20 -39 0 -56 8 -7 12 -16 10 -21 -3 -4 3 -17
15 -29 26 -26 25 -33 -5 -28 -13 3 -22 1 -19 -3 3 -5 0 -9 -6 -9 -6 0 -4 -8 6
-17 16 -16 15 -18 -15 -30 -18 -8 -36 -11 -42 -8 -5 4 -9 1 -9 -4 0 -6 7 -11
15 -11 14 0 20 -31 18 -87 -1 -7 8 -13 18 -13 12 0 19 -7 19 -20 0 -24 -18
-27 -26 -5 -5 13 -9 13 -22 3 -13 -11 -15 -10 -9 5 5 13 1 17 -18 17 -18 0
-25 -5 -25 -20 0 -13 7 -20 20 -20 22 0 25 -7 11 -29 -7 -11 -15 -11 -41 -3
-24 9 -31 9 -27 -1 2 -6 0 -20 -5 -29 -6 -14 -5 -16 7 -12 21 8 32 -26 14 -40
-8 -6 -13 -19 -11 -29 2 -9 -2 -17 -8 -17 -6 0 -8 -5 -5 -11 4 -5 -7 -15 -23
-21 -17 -7 -35 -22 -41 -35 -20 -44 -10 -68 17 -41 9 9 12 8 12 -4 0 -11 -13
-18 -39 -23 -33 -5 -41 -12 -51 -38 -6 -18 -12 -34 -13 -37 -5 -14 -33 -40
-43 -40 -17 0 -74 -52 -74 -67 0 -6 -9 -18 -20 -26 -53 -37 -22 -37 1437 -35
l1412 3 -71 75 c-63 66 -120 132 -215 249 -16 19 -31 41 -36 50 -4 9 -20 32
-35 52 -93 123 -117 158 -152 224 -12 22 -29 49 -39 60 -32 39 -61 84 -61 97
0 7 -9 24 -20 38 -11 14 -20 30 -20 36 0 6 -9 19 -20 29 -11 10 -20 24 -20 31
0 7 -11 39 -24 71 -21 52 -37 103 -66 213 -24 90 -46 420 -28 420 10 0 -2 30
-26 62 -11 15 -17 31 -13 34 3 3 -3 16 -14 27 -10 11 -17 28 -14 37 3 8 -10
33 -30 55 -19 22 -39 45 -45 52 -5 7 -7 18 -4 26 3 8 1 18 -5 21 -17 11 -5
-76 13 -89 20 -15 21 -34 2 -49 -7 -6 -16 -26 -19 -43 -5 -26 -2 -35 14 -44
19 -10 20 -12 6 -27 -14 -14 -18 -14 -41 1 -19 13 -49 17 -124 17 -93 0 -100
2 -138 29 -31 23 -40 37 -42 63 -2 18 -9 36 -17 41 -8 4 -15 20 -15 35 0 16
-3 22 -8 15 -5 -8 -12 -8 -27 3 -19 14 -19 15 2 20 28 8 39 44 12 44 -12 0
-16 5 -13 15 4 8 1 15 -6 15 -6 0 -14 -9 -17 -20 -3 -11 -9 -17 -14 -14 -5 3
-9 -1 -9 -9 0 -8 -7 -20 -15 -27 -13 -11 -15 -7 -15 24 0 22 -4 35 -10 31 -6
-3 -7 -17 -4 -31 7 -26 -13 -41 -41 -30 -12 4 -14 10 -5 25 7 14 7 27 -1 45
-10 20 -9 28 5 41 9 9 16 23 16 31 0 21 -34 17 -55 -6 -13 -15 -22 -17 -36 -9
-11 5 -19 14 -19 20 0 6 4 8 9 4 12 -7 43 24 36 36 -4 5 -14 9 -24 9 -10 0
-34 6 -52 14 -58 23 -99 28 -99 11z m204 -471 c8 -20 -1 -34 -20 -34 -8 0 -17
-13 -20 -30 -4 -16 -10 -30 -14 -30 -5 0 -14 -16 -20 -35 -6 -19 -15 -35 -20
-35 -4 0 -11 -11 -14 -25 -4 -14 -11 -25 -16 -25 -6 0 -10 -6 -10 -14 0 -8 -7
-16 -15 -20 -8 -3 -15 -16 -15 -28 0 -13 -4 -30 -9 -37 -16 -24 5 -48 47 -55
28 -4 41 -12 45 -26 3 -11 12 -20 19 -20 18 0 40 -44 32 -65 -11 -27 -30 -14
-25 17 1 8 -39 21 -55 17 -23 -4 -34 2 -34 19 0 22 -26 47 -57 55 -20 4 -21 3
-12 -14 8 -16 6 -21 -13 -28 -33 -12 -47 -3 -46 30 1 21 6 29 18 29 10 0 20 8
24 18 7 22 28 55 41 64 5 4 10 20 11 37 2 31 27 63 57 74 13 5 16 13 12 27 -4
13 1 31 14 49 12 16 21 36 21 44 0 15 45 57 60 57 4 0 11 -7 14 -16z"/>
<path d="M4963 1821 c-73 -12 -149 -117 -107 -148 16 -11 19 -11 27 4 6 10 17
26 26 36 9 11 16 26 16 35 0 11 10 18 30 20 17 2 35 7 40 12 6 4 58 10 117 13
59 3 112 8 118 12 5 3 22 -3 38 -15 21 -15 36 -19 60 -14 48 10 33 28 -24 32
-27 2 -53 7 -58 13 -11 10 -218 10 -283 0z"/>
<path d="M10632 1687 c-6 -12 -15 -38 -21 -57 -6 -19 -20 -64 -31 -100 -23
-72 -50 -186 -50 -211 0 -9 10 -19 23 -23 14 -3 26 -17 32 -39 9 -29 9 -33 -7
-34 -10 -1 -23 7 -29 18 -10 19 -12 20 -29 4 -29 -26 -45 -74 -31 -88 10 -9
14 -8 22 6 15 26 41 22 34 -6 -5 -17 1 -30 19 -48 14 -13 26 -29 26 -36 0 -6
25 -24 56 -38 49 -23 60 -25 81 -14 25 13 15 29 -19 29 -22 0 -27 19 -12 48
16 31 7 62 -18 62 -14 0 -18 5 -14 16 3 9 6 18 6 20 0 2 7 4 15 4 8 0 15 5 15
10 0 6 -5 10 -11 10 -7 0 -9 10 -5 25 5 18 1 30 -14 42 -11 10 -20 25 -20 34
0 9 -7 22 -15 29 -9 8 -13 21 -9 35 4 17 0 26 -15 35 -29 15 -26 80 4 80 8 0
10 9 7 26 -2 14 0 35 5 47 42 92 44 98 30 118 -13 18 -14 18 -25 -4z"/>
<path d="M14367 1544 c-4 -4 -7 -19 -7 -34 0 -37 -9 -43 -37 -24 -13 8 -30 13
-36 10 -7 -2 -3 -5 8 -6 14 -2 11 -4 -10 -9 -16 -4 -48 -4 -70 0 -22 4 -41 3
-43 -2 -8 -20 -21 -7 -24 23 -3 30 -4 31 -20 15 -13 -13 -17 -31 -14 -70 1
-29 1 -46 -1 -39 -6 15 -53 16 -53 0 0 -6 -3 -9 -6 -5 -3 3 -12 1 -19 -6 -9
-9 -9 -14 1 -24 17 -17 27 -17 21 1 -3 8 5 18 19 25 26 11 33 0 14 -22 -6 -7
-17 -21 -24 -31 -10 -14 -24 -19 -54 -18 -23 1 -44 -3 -48 -10 -5 -7 0 -9 14
-6 12 4 24 3 27 -2 3 -4 -7 -10 -20 -13 -14 -2 -28 0 -31 5 -3 5 -12 4 -20 -3
-7 -6 -11 -16 -7 -23 4 -6 -1 -5 -10 3 -14 11 -17 11 -18 0 -4 -45 -7 -57 -13
-68 -4 -6 -2 -11 3 -11 6 0 11 -6 11 -14 0 -9 -9 -13 -25 -11 -14 1 -25 -1
-25 -4 0 -3 -10 -11 -22 -16 -12 -6 -24 -16 -26 -24 -3 -8 0 -11 7 -7 6 4 11
2 11 -3 0 -6 5 -11 12 -11 9 0 9 3 0 12 -15 15 -16 31 -1 22 6 -3 15 -1 19 6
5 9 12 4 22 -16 8 -16 20 -28 26 -26 11 2 16 -11 13 -30 0 -4 6 -5 14 -2 8 4
15 10 15 15 0 16 54 9 79 -10 14 -10 31 -17 38 -14 24 9 13 -12 -22 -45 -20
-17 -45 -32 -55 -32 -11 0 -20 -4 -20 -9 0 -11 69 -9 88 2 6 5 12 17 12 27 0
10 8 21 19 25 13 4 17 12 14 29 -4 18 0 26 16 31 13 4 21 15 21 29 0 12 11 33
24 46 14 12 28 35 31 51 4 15 13 33 21 40 8 6 14 19 14 29 0 10 7 21 16 24 10
4 14 14 11 26 -3 13 0 20 10 20 8 0 11 -4 8 -10 -3 -5 0 -7 8 -4 15 5 26 31
31 68 3 21 28 38 66 46 22 5 25 10 22 40 -4 37 -14 55 -25 44z"/>
<path d="M14602 1516 c-21 -14 -31 -27 -28 -38 2 -10 0 -21 -6 -24 -5 -3 -7
-12 -4 -19 2 -7 0 -17 -6 -23 -6 -6 -6 -12 -1 -15 6 -4 8 -20 5 -37 -4 -28 -7
-30 -38 -27 -19 2 -37 7 -41 10 -10 11 -51 8 -58 -3 -3 -5 -23 -10 -43 -10
l-37 -1 25 -20 c16 -13 33 -19 50 -16 14 3 63 1 110 -4 88 -9 113 -2 91 24 -6
8 -10 23 -8 33 10 51 21 74 34 74 12 0 14 7 8 28 -4 15 -7 39 -8 54 -3 37 -8
38 -45 14z"/>
<path d="M8672 1127 c-8 -20 -8 -35 -2 -41 6 -6 10 -18 10 -28 0 -10 15 -35
34 -55 18 -21 41 -52 50 -70 9 -18 25 -37 36 -43 12 -6 20 -21 20 -35 0 -14 5
-25 10 -25 6 0 10 -6 10 -13 0 -12 12 -21 63 -45 15 -7 -7 34 -29 56 -13 13
-24 30 -24 39 0 35 -26 89 -58 120 -19 18 -37 33 -40 33 -4 0 -14 4 -22 10
-12 7 -12 12 4 29 18 19 17 21 -2 49 -37 52 -47 55 -60 19z"/>
<path d="M10360 901 c-5 -11 -10 -27 -10 -36 0 -10 -11 -30 -25 -47 -14 -17
-25 -42 -25 -59 0 -16 -4 -29 -9 -29 -13 0 -40 -61 -34 -77 7 -17 23 -17 23 1
0 17 24 28 45 20 21 -8 19 -21 -5 -29 -27 -9 -25 -16 15 -42 27 -17 36 -19 44
-9 6 7 8 16 5 19 -4 3 -3 14 1 24 4 10 7 29 6 43 -1 18 1 21 7 11 15 -21 26 5
23 53 -3 49 -18 79 -37 72 -8 -3 -14 -2 -14 3 0 5 9 11 20 14 21 5 27 31 10
42 -5 3 -10 15 -10 26 0 25 -16 25 -30 0z"/>
</g>
</svg>
